<svg id="Слой_1" xmlns="http://www.w3.org/2000/svg" viewBox="0 0 33.95 29.82">
    <style>
        .st0{fill:none;stroke:#fff;stroke-width:1.9199;stroke-linecap:round;stroke-linejoin:round;stroke-miterlimit:22.9256}
    </style>
    <path class="st0" d="M14.86 23.62c1.45 0 2.62 1.17 2.62 2.62 0 1.45-1.17 2.62-2.62 2.62-1.45 0-2.62-1.17-2.62-2.62 0-1.44 1.17-2.62 2.62-2.62z"/>
    <path class="st0" d="M25.77 23.62c1.45 0 2.62 1.17 2.62 2.62 0 1.45-1.17 2.62-2.62 2.62-1.45 0-2.62-1.17-2.62-2.62 0-1.44 1.17-2.62 2.62-2.62z"/>
    <path class="st0" d="M.96.96h8.31l3.36 17.45h17.31"/>
    <path class="st0" d="M12.12 13.82h19.69"/>
    <path class="st0" d="M11.47 9.23h21.52"/>
</svg>
