<!-- Generator: Adobe Illustrator 22.0.0, SVG Export Plug-In  -->
<svg version="1.1"
	 xmlns="http://www.w3.org/2000/svg" xmlns:xlink="http://www.w3.org/1999/xlink" xmlns:a="http://ns.adobe.com/AdobeSVGViewerExtensions/3.0/"
	 x="0px" y="0px" width="34px" height="29.8px" viewBox="0 0 34 29.8" style="overflow:scroll;enable-background:new 0 0 34 29.8;"
	 xml:space="preserve">
<style type="text/css">
	.st0{fill:none;stroke:#000000;stroke-width:1.9199;stroke-linecap:round;stroke-linejoin:round;stroke-miterlimit:22.9256;}
</style>
<defs>
</defs>
<path class="st0" d="M14.9,23.6c1.4,0,2.6,1.2,2.6,2.6c0,1.4-1.2,2.6-2.6,2.6c-1.4,0-2.6-1.2-2.6-2.6C12.2,24.8,13.4,23.6,14.9,23.6
	L14.9,23.6z"/>
<path class="st0" d="M25.8,23.6c1.4,0,2.6,1.2,2.6,2.6c0,1.4-1.2,2.6-2.6,2.6c-1.4,0-2.6-1.2-2.6-2.6C23.1,24.8,24.3,23.6,25.8,23.6
	L25.8,23.6z"/>
<polyline class="st0" points="1,1 9.3,1 12.6,18.4 29.9,18.4 "/>
<line class="st0" x1="12.1" y1="13.8" x2="31.8" y2="13.8"/>
<line class="st0" x1="11.5" y1="9.2" x2="33" y2="9.2"/>
</svg>
