<?xml version="1.0" encoding="UTF-8" standalone="no"?>
<svg
   xmlns:dc="http://purl.org/dc/elements/1.1/"
   xmlns:cc="http://creativecommons.org/ns#"
   xmlns:rdf="http://www.w3.org/1999/02/22-rdf-syntax-ns#"
   xmlns:svg="http://www.w3.org/2000/svg"
   xmlns="http://www.w3.org/2000/svg"
   viewBox="0 0 154.224 162.99733"
   height="162.99733"
   width="154.224"
   xml:space="preserve"
   id="svg2"
   version="1.1"><metadata
     id="metadata8"><rdf:RDF><cc:Work
         rdf:about=""><dc:format>image/svg+xml</dc:format><dc:type
           rdf:resource="http://purl.org/dc/dcmitype/StillImage" /></cc:Work></rdf:RDF></metadata><defs
     id="defs6"><clipPath
       id="clipPath18"
       clipPathUnits="userSpaceOnUse"><path
         id="path16"
         d="M 0,122.248 H 115.668 V 0 H 0 Z" /></clipPath></defs><g
     transform="matrix(1.3333333,0,0,-1.3333333,0,162.99733)"
     id="g10"><g
       id="g12"><g
         clip-path="url(#clipPath18)"
         id="g14"><g
           transform="translate(26.0128,17.7802)"
           id="g20"><path
             id="path22"
             style="fill:none;stroke:#000000;stroke-width:5;stroke-linecap:round;stroke-linejoin:round;stroke-miterlimit:10;stroke-dasharray:none;stroke-opacity:1"
             d="m 0,0 c 0,3.196 -2.59,5.786 -5.786,5.786 -3.195,0 -5.786,-2.59 -5.786,-5.786 0,-3.195 2.591,-5.786 5.786,-5.786 C -2.59,-5.786 0,-3.195 0,0 Z" /></g><g
           transform="translate(20.2266,23.5664)"
           id="g24"><path
             id="path26"
             style="fill:none;stroke:#000000;stroke-width:5;stroke-linecap:round;stroke-linejoin:round;stroke-miterlimit:10;stroke-dasharray:none;stroke-opacity:1"
             d="M 0,0 V -4.186" /></g><g
           transform="translate(22.7735,104.8789)"
           id="g28"><path
             id="path30"
             style="fill:none;stroke:#000000;stroke-width:5;stroke-linecap:round;stroke-linejoin:round;stroke-miterlimit:10;stroke-dasharray:none;stroke-opacity:1"
             d="m 0,0 c 0,2.301 -1.866,4.166 -4.167,4.166 -2.301,0 -4.166,-1.865 -4.166,-4.166 0,-2.301 1.865,-4.167 4.166,-4.167 C -1.866,-4.167 0,-2.301 0,0 Z" /></g><g
           transform="translate(101.0743,92.915)"
           id="g32"><path
             id="path34"
             style="fill:none;stroke:#000000;stroke-width:5;stroke-linecap:round;stroke-linejoin:round;stroke-miterlimit:10;stroke-dasharray:none;stroke-opacity:1"
             d="m 0,0 c 0,14.82 -12.014,26.833 -26.833,26.833 h -46.186 c -15.291,0 -25.553,-12.396 -25.553,-27.687 l 98.572,0 z" /></g><g
           transform="translate(89.794,92.0605)"
           id="g36"><path
             id="path38"
             style="fill:none;stroke:#000000;stroke-width:5;stroke-linecap:round;stroke-linejoin:round;stroke-miterlimit:10;stroke-dasharray:none;stroke-opacity:1"
             d="M 0,0 V -5.022 C 0,-7.04 -1.636,-8.676 -3.654,-8.676 h -16.62 c -2.018,0 -3.654,1.636 -3.654,3.654 V 0 Z" /></g><g
           transform="translate(80.9068,83.3847)"
           id="g40"><path
             id="path42"
             style="fill:none;stroke:#000000;stroke-width:5;stroke-linecap:round;stroke-linejoin:round;stroke-miterlimit:10;stroke-dasharray:none;stroke-opacity:1"
             d="M 0,0 V -11.833" /></g><g
           transform="translate(74.7535,83.3847)"
           id="g44"><path
             id="path46"
             style="fill:none;stroke:#000000;stroke-width:5;stroke-linecap:round;stroke-linejoin:round;stroke-miterlimit:10;stroke-dasharray:none;stroke-opacity:1"
             d="M 0,0 V -11.833" /></g><g
           transform="translate(81.6856,71.5512)"
           id="g48"><path
             id="path50"
             style="fill:none;stroke:#000000;stroke-width:5;stroke-linecap:round;stroke-linejoin:round;stroke-miterlimit:10;stroke-dasharray:none;stroke-opacity:1"
             d="m 0,0 c 2.024,0 3.665,-1.641 3.665,-3.666 v -7.757 h -15.04 v 7.757 c 0,2.025 1.64,3.666 3.664,3.666 z" /></g><g
           transform="translate(53.4815,52.9502)"
           id="g52"><path
             id="path54"
             style="fill:none;stroke:#000000;stroke-width:5;stroke-linecap:round;stroke-linejoin:round;stroke-miterlimit:10;stroke-dasharray:none;stroke-opacity:1"
             d="M 0,0 C 0.149,-3.451 0.51,-7.327 1.156,-11.158" /></g><g
           transform="translate(94.7486,15.5947)"
           id="g56"><path
             id="path58"
             style="fill:none;stroke:#000000;stroke-width:5;stroke-linecap:round;stroke-linejoin:round;stroke-miterlimit:10;stroke-dasharray:none;stroke-opacity:1"
             d="M 0,0 C 16.408,8.65 14.613,44.536 14.613,44.536 H -9.398 -24.437 -48.454 c 0,0 -0.625,-12.465 2.225,-24.473" /></g><g
           transform="translate(60.9078,15.5947)"
           id="g60"><path
             id="path62"
             style="fill:none;stroke:#000000;stroke-width:5;stroke-linecap:round;stroke-linejoin:round;stroke-miterlimit:10;stroke-dasharray:none;stroke-opacity:1"
             d="M 0,0 C -4.471,2.358 -7.588,6.737 -9.762,11.859" /></g><g
           transform="translate(35.2735,15.5947)"
           id="g64"><path
             id="path66"
             style="fill:none;stroke:#000000;stroke-width:5;stroke-linecap:round;stroke-linejoin:round;stroke-miterlimit:10;stroke-dasharray:none;stroke-opacity:1"
             d="m 0,0 v 63.135 c 0,7.362 5.968,13.33 13.331,13.33" /></g><g
           transform="translate(35.2735,15.5957)"
           id="g68"><path
             id="path70"
             style="fill:none;stroke:#000000;stroke-width:5;stroke-linecap:round;stroke-linejoin:round;stroke-miterlimit:10;stroke-dasharray:none;stroke-opacity:1"
             d="m 0,0 h 25.637 33.841 5.385 c 7.198,0 13.032,-5.834 13.032,-13.031 v -0.065 H -32.773 v 13.095 c 8.641,12.045 13.288,26.497 13.288,41.322 v 19.722 c 0,8.517 -4.769,15.421 -13.286,15.421" /></g><g
           transform="translate(35.2735,35.6591)"
           id="g72"><path
             id="path74"
             style="fill:none;stroke:#000000;stroke-width:5;stroke-linecap:round;stroke-linejoin:round;stroke-miterlimit:10;stroke-dasharray:none;stroke-opacity:1"
             d="M 0,0 H 28.457 V -8.204 H 0" /></g><g
           transform="translate(60.1666,104.8789)"
           id="g76"><path
             id="path78"
             style="fill:none;stroke:#000000;stroke-width:5;stroke-linecap:round;stroke-linejoin:round;stroke-miterlimit:10;stroke-dasharray:none;stroke-opacity:1"
             d="M 0,0 H 38.098" /></g><g
           transform="translate(28.8541,104.6831)"
           id="g80"><path
             id="path82"
             style="fill:none;stroke:#000000;stroke-width:5;stroke-linecap:round;stroke-linejoin:round;stroke-miterlimit:4;stroke-dasharray:none;stroke-opacity:1"
             d="M 0,0 V 0" /></g><g
           transform="translate(34.7198,104.6831)"
           id="g84"><path
             id="path86"
             style="fill:none;stroke:#000000;stroke-width:5;stroke-linecap:round;stroke-linejoin:round;stroke-miterlimit:4;stroke-dasharray:0, 6.604;stroke-dashoffset:0;stroke-opacity:1"
             d="M 0,0 H 14.665" /></g><g
           transform="translate(52.3179,104.6831)"
           id="g88"><path
             id="path90"
             style="fill:none;stroke:#000000;stroke-width:5;stroke-linecap:round;stroke-linejoin:round;stroke-miterlimit:4;stroke-dasharray:none;stroke-opacity:1"
             d="M 0,0 V 0" /></g></g></g></g></svg>