<svg id="icons" xmlns="http://www.w3.org/2000/svg" viewBox="0 0 48 47">
    <style>
        .st0,.st1{fill:none;stroke:#505050;stroke-width:2;stroke-miterlimit:10}.st1{stroke-linejoin:round}
    </style>
    <path class="st0" d="M10 24c2.29 0 4-1.92 4-4.29v-1.43c0-2.37-1.71-4.29-4-4.29s-4 1.92-4 4.29v1.43C6 22.08 7.71 24 10 24z"/>
    <path class="st1" d="M17 29c-1.33-.71-2.92-1.92-5-2H7c-3.58 0-6 1.51-6 6v4c0 4 3.24 5 6 5h4"/>
    <path class="st1" d="M6 32v4c0 .55.45 1 1 1h6"/>
    <path class="st1" d="M5 42v5"/>
    <path class="st1" d="M16 44v3"/>
    <path class="st1" d="M22.76 40H19l2-4h3.38c.74 0 1.23.78.89 1.45l-.72 1.45c-.34.67-1.03 1.1-1.79 1.1z"/>
    <path class="st1" d="M10 31l4 5"/>
    <path class="st1" d="M24 36l2-4H16l-6 12h10l2-4"/>
    <path class="st1" d="M28 24v-1c0-.9-.81-1.74-1.44-2.38C25.62 19.66 25 18.46 25 17c0-2.76 2.24-5 5-5s5 2.24 5 5c0 1.47-.61 2.66-1.56 3.62C32.81 21.26 32 22.1 32 23v1h-4z"/>
    <path class="st1" d="M30 9V4"/>
    <path class="st1" d="M23.64 10.64l-2.83-2.83"/>
    <path class="st1" d="M22 17h-5"/>
    <path class="st1" d="M23.64 23.36l-2.83 2.83"/>
    <path class="st1" d="M36.36 23.36l2.83 2.83"/>
    <path class="st1" d="M38 17h5"/>
    <path class="st1" d="M36.36 10.64l2.83-2.83"/>
    <path class="st1" d="M28 24v2l1 1h2l1-1v-2"/>
    <path class="st1" d="M12 11V4c0-1.66 1.34-3 3-3h29c1.66 0 3 1.34 3 3v25c0 1.66-1.34 3-3 3h-3l-6.25 7.03c-.61.69-1.75.26-1.75-.66V32h-4"/>
</svg>
