<svg id="Large_Preview" xmlns="http://www.w3.org/2000/svg" viewBox="0 0 324.5 355.36">
    <style>
        .st0{fill:none;stroke:#d02d26;stroke-width:16;stroke-linecap:round;stroke-linejoin:round;stroke-miterlimit:10}
    </style>
    <path class="st0" d="M290.08 45.74c20.36 3.95 27.39 21.05 26.31 41.9-4.2 81.16-121.52 137.09-121.47 214.18.01 20.88 14.55 40.95 34.92 44.9 20.36 3.95 37.52-11.02 38.82-30.6.76-9.49-2.09-22.12-2.09-22.12l-43.24-8.38"/>
    <path class="st0" d="M98.37 8.57l191.71 37.17c-14.4-2.79-27.72 5.4-34.38 16.28-5.42 8.86-5.75 20.05-3.96 26.82.22.82-.45 1.55-1.28 1.38l-186.5-36.3c-5.11-11.86-4.12-25.8 2.99-33.89C74.36 11.6 85.93 6.16 98.37 8.57z"/>
    <path class="st0" d="M108.02 62.49C82 154.49 7.95 182.2 8 254.49c.01 20.88 10 44.44 35.5 51.5 21.38 5.92 186.34 40.73 186.34 40.73"/>
    <path class="st0" d="M188.5 142.49l-56 56-24-24-24 24 48 48 80-80z"/>
</svg>
