<svg id="Icons" xmlns="http://www.w3.org/2000/svg" viewBox="0 0 131.67 151.19">
    <style>
        .st0{fill:#3d3934}
    </style>
    <path class="st0" d="M79.76 93.07v-80.5h-9.47v80.51h9.47zm21.74 0v-80.5h-9.47v80.51h9.47zm21.74 0v-80.5h-9.47v80.51h9.47zm-6.92-75.82h4.36V28.9h-4.36V17.25zm-21.74-.19h4.36v11.65h-4.36V17.06zm-21.74 0h4.36v11.65h-4.36V17.06zm-17.13-4.49H8.44v80.51h47.28V12.57zm3.93 0v82.47c0 1.08-.88 1.96-1.96 1.96H6.47c-1.08 0-1.96-.88-1.96-1.96V12.57H1.96v-.01C.88 12.56 0 11.68 0 10.6V2.13v-.17C0 .88.88 0 1.96 0h127.75v.01c1.08 0 1.96.88 1.96 1.96v8.46c.01.06.01.12.01.18 0 1.08-.88 1.96-1.96 1.96h-2.55v82.47c0 1.08-.88 1.96-1.96 1.96h-13.4c-1.08 0-1.96-.88-1.96-1.96V12.57h-4.42v82.47c0 1.08-.88 1.96-1.96 1.96h-13.4c-1.08 0-1.96-.88-1.96-1.96V12.57h-4.42v82.47c0 1.08-.88 1.96-1.96 1.96h-13.4c-1.08 0-1.96-.88-1.96-1.96V12.57h-6.73zM47.81 45.66c.83-.69 2.06-.58 2.75.25s.58 2.06-.25 2.75L20.01 73.9c-.83.69-2.06.58-2.75-.25s-.58-2.06.25-2.75l30.3-25.24zM36.57 19.12a1.95 1.95 0 0 1 2.75.24c.69.83.59 2.06-.24 2.75L17.47 40.28c-.83.69-2.06.59-2.75-.24a1.95 1.95 0 0 1 .24-2.75l21.61-18.17zm7.57 11.84c.83-.69 2.06-.58 2.75.25s.58 2.06-.25 2.75L16.34 59.2c-.83.69-2.06.58-2.75-.25s-.58-2.06.25-2.75l30.3-25.24zm.48 36.22c.83-.69 2.06-.58 2.75.25s.58 2.06-.25 2.75L27.7 86.35c-.83.69-2.06.58-2.75-.25s-.58-2.06.25-2.75l19.42-16.17zm-40.7 71.67h59.96v-32H3.92v32zm63.87-32v32h59.96v-32H67.79zm59.63 35.93h-8.1l.7 4.5h6.7l.7-4.5zm-115.07 0h-8.1l.7 4.5h6.7l.7-4.5zm76.91-28.31c-1.08 0-1.96-.88-1.96-1.96s.88-1.96 1.96-1.96h17.02c1.08 0 1.96.88 1.96 1.96s-.88 1.96-1.96 1.96H89.26zm-63.87 0c-1.08 0-1.96-.88-1.96-1.96s.88-1.96 1.96-1.96h17.02c1.08 0 1.96.88 1.96 1.96s-.88 1.96-1.96 1.96H25.39zm106.27 26.33v.16c0 .05-.01.1-.02.14 0 .02-.01.04-.01.06l-1.3 8.36c-.15.98-1.01 1.68-1.98 1.66h-10c-.98 0-1.79-.72-1.93-1.66l-1.05-6.75H16.3l-1.05 6.75c-.15.98-1.01 1.68-1.98 1.66h-10c-.98 0-1.79-.72-1.93-1.66l-1.28-8.25c-.04-.14-.06-.3-.06-.46 0-.06 0-.11.01-.17v-35.76c0-1.08.88-1.96 1.96-1.96v-.01h127.74c1.08 0 1.96.88 1.96 1.96 0 .06 0 .12-.01.18v35.75zM3.92 8.64h123.83V3.93H3.92v4.71z"/>
</svg>
