<svg id="Icons" xmlns="http://www.w3.org/2000/svg" viewBox="0 0 116.2 73.6">
    <style>
        .st0{fill:#3d3934}
    </style>
    <path class="st0" d="M112.27 3.93H3.93v65.74h108.34V3.93zM62.66 17.92c.84-.68 2.07-.56 2.75.28.68.84.55 2.07-.28 2.75L31.85 47.99c-.84.68-2.07.56-2.75-.28-.68-.84-.55-2.07.28-2.75l33.28-27.04zm19.14 8.26c.84-.68 2.07-.55 2.75.28.68.84.56 2.07-.28 2.75L50.99 56.25c-.84.68-2.07.55-2.75-.28-.68-.84-.55-2.07.28-2.75L81.8 26.18zm15.6 11.66c.84-.68 2.07-.55 2.75.28.68.84.55 2.07-.28 2.75L78.54 58.2c-.84.68-2.07.55-2.75-.28-.68-.84-.56-2.07.28-2.75L97.4 37.84zM37.79 15.4c.84-.68 2.07-.56 2.75.28.68.84.55 2.07-.28 2.75L18.94 35.75c-.84.68-2.07.55-2.75-.28-.68-.84-.55-2.07.28-2.75L37.79 15.4zM1.96 0h112.27c1.08 0 1.96.88 1.96 1.96v69.67c0 1.08-.88 1.96-1.96 1.96H1.96A1.95 1.95 0 0 1 0 71.63V1.96C0 .88.88 0 1.96 0z"/>
</svg>
