<svg id="icons" xmlns="http://www.w3.org/2000/svg" viewBox="0 0 67 55.18">
    <style>
        .st0{fill:none;stroke:#505050;stroke-width:2;stroke-miterlimit:10}
    </style>
    <path class="st0" d="M18.73 21.68H6.91L1 39.41v1.48h23.64v-1.48z"/>
    <path class="st0" d="M60.09 21.68H48.27l-5.91 17.73v1.48H66v-1.48z"/>
    <path class="st0" d="M33.5 46.8c0 5.71 4.63 7.39 10.34 7.39s10.34-1.68 10.34-7.39v-5.91"/>
    <path class="st0" d="M12.82 40.89v5.91c0 5.71 4.63 7.39 10.34 7.39S33.5 52.51 33.5 46.8V6.91"/>
    <path class="st0" d="M43.8 6.91H23.2c-1.66 0-3-1.34-3-3V1h26.6v2.91c0 1.66-1.35 3-3 3z"/>
</svg>
