<svg id="Icons" xmlns="http://www.w3.org/2000/svg" viewBox="0 0 75.45 153.28">
    <style>
        .st0{fill:#3d3934}
    </style>
    <path class="st0" d="M73.48 0H1.96C.88 0 0 .88 0 1.96V143.2c0 .15.02.3.06.44l1.23 7.91c.12.96.94 1.71 1.94 1.71h9.65c.97.03 1.83-.67 1.98-1.66l1.01-6.46h15.75H5.69h53.89l.98 6.29c.07 1.03.92 1.84 1.96 1.84h9.7v-.01c.95 0 1.78-.69 1.93-1.66l1.24-7.95c.02-.07.03-.15.04-.23l.01-.06V1.96A1.95 1.95 0 0 0 73.48 0zM11.25 149.36H4.9l-.66-4.21H11.9l-.65 4.21zm59.29-.01h-6.35l-.65-4.2h7.66l-.66 4.2zm.98-8.13v.84H3.93v-32.21H71.5v31.37zm0-64.04v29.12H3.93V74.54H71.5v2.64zm0-35.3v29.43H3.93V39.23h27.68H5.69h65.83v2.65zm0-6.58H3.73h29.85H3.93V3.93h67.59V35.3z"/>
    <path class="st0" d="M59.73 13.91V7.45c0-.17-.14-.32-.32-.32h-1.7c-.17 0-.32.14-.32.32v6.46c0 .28-.16.54-.42.67a3.452 3.452 0 0 0-1.88 3.08V34.7c0 .43.35.79.79.79h5.35c.43 0 .79-.35.79-.79V17.65c0-1.34-.76-2.5-1.88-3.08a.764.764 0 0 1-.41-.66z"/>
    <path class="st0" d="M44.73 13.91V7.45c0-.17-.14-.32-.32-.32h-1.7c-.17 0-.32.14-.32.32v6.46c0 .28-.16.54-.42.67a3.452 3.452 0 0 0-1.88 3.08V34.7c0 .43.35.79.79.79h5.35c.43 0 .79-.35.79-.79V17.65c0-1.34-.76-2.5-1.88-3.08a.764.764 0 0 1-.41-.66z"/>
    <path class="st0" d="M24.73 50.41v-6.46c0-.17-.14-.32-.32-.32h-1.7c-.17 0-.32.14-.32.32v6.46c0 .28-.16.54-.42.67a3.452 3.452 0 0 0-1.88 3.08V71.2c0 .43.35.79.79.79h5.35c.43 0 .79-.35.79-.79V54.15c0-1.34-.76-2.5-1.88-3.08a.764.764 0 0 1-.41-.66z"/>
    <path class="st0" d="M17.23 50.41v-6.46c0-.17-.14-.32-.32-.32h-1.7c-.17 0-.32.14-.32.32v6.46c0 .28-.16.54-.42.67a3.452 3.452 0 0 0-1.88 3.08V71.2c0 .43.35.79.79.79h5.35c.43 0 .79-.35.79-.79V54.15c0-1.34-.76-2.5-1.88-3.08a.764.764 0 0 1-.41-.66z"/>
    <path class="st0" d="M54.61 120.66v-6.46c0-.17-.14-.32-.32-.32h-1.7c-.17 0-.32.14-.32.32v6.46c0 .28-.16.54-.42.67a3.452 3.452 0 0 0-1.88 3.08v17.04c0 .43.35.79.79.79h5.35c.43 0 .79-.35.79-.79V124.4c0-1.34-.76-2.5-1.88-3.08a.745.745 0 0 1-.41-.66z"/>
    <path class="st0" d="M46.98 120.66v-6.46c0-.17-.14-.32-.32-.32h-1.7c-.17 0-.32.14-.32.32v6.46c0 .28-.16.54-.42.67a3.452 3.452 0 0 0-1.88 3.08v17.04c0 .43.35.79.79.79h5.35c.43 0 .79-.35.79-.79V124.4c0-1.34-.76-2.5-1.88-3.08a.764.764 0 0 1-.41-.66z"/>
    <path class="st0" d="M53.36 85.53v-6.46c0-.17-.14-.32-.32-.32h-1.7c-.17 0-.32.14-.32.32v6.46c0 .28-.16.54-.42.67a3.452 3.452 0 0 0-1.88 3.08v17.04c0 .43.35.79.79.79h5.35c.43 0 .79-.35.79-.79V89.28c0-1.34-.76-2.5-1.88-3.08a.749.749 0 0 1-.41-.67z"/>
    <path class="st0" d="M38.23 85.53v-6.46c0-.17-.14-.32-.32-.32h-1.7c-.17 0-.32.14-.32.32v6.46c0 .28-.16.54-.42.67a3.452 3.452 0 0 0-1.88 3.08v17.04c0 .43.35.79.79.79h5.35c.43 0 .79-.35.79-.79V89.28c0-1.34-.76-2.5-1.88-3.08a.768.768 0 0 1-.41-.67z"/>
</svg>
