<svg id="Icons" xmlns="http://www.w3.org/2000/svg" viewBox="0 0 517 682.54">
    <style>
        .st0{fill:none;stroke:#3d3934;stroke-width:7;stroke-miterlimit:10}
    </style>
    <path class="st0" d="M278.23 44.84h5.79c3.94 0 7.14 3.2 7.14 7.14v38.77c0 2-.93 3.87-2.49 5.11-11.49 9.19-17.36 20.87-17.36 31.38 0 9.43 7.58 30.83 7.58 30.83h28.8s7.58-21.4 7.58-30.83c0-10.51-5.88-22.19-17.36-31.38-1.56-1.25-2.49-3.12-2.49-5.11V51.97c0-3.94 3.2-7.14 7.14-7.14h5.78c2.62 0 5.07-1.33 6.49-3.52v-.01h-43.09a7.729 7.729 0 0 0 6.49 3.54z"/>
    <path class="st0" d="M336.72 44.84h5.79c3.94 0 7.14 3.2 7.14 7.14v38.77c0 2-.93 3.87-2.49 5.11-11.49 9.19-17.36 20.87-17.36 31.38 0 9.43 7.58 30.83 7.58 30.83h28.8s7.58-21.4 7.58-30.83c0-10.51-5.88-22.19-17.36-31.38-1.56-1.25-2.49-3.12-2.49-5.11V51.97c0-3.94 3.2-7.14 7.14-7.14h5.78c2.62 0 5.07-1.33 6.49-3.52v-.01h-43.09a7.729 7.729 0 0 0 6.49 3.54z"/>
    <path class="st0" d="M162.97 44.84h5.79c3.94 0 7.14 3.2 7.14 7.14v38.77c0 2-.93 3.87-2.49 5.11-11.49 9.19-17.36 20.87-17.36 31.38 0 9.43 7.58 30.83 7.58 30.83h28.8s7.58-21.4 7.58-30.83c0-10.51-5.88-22.19-17.36-31.38-1.56-1.25-2.49-3.12-2.49-5.11V51.97c0-3.94 3.2-7.14 7.14-7.14h5.78c2.62 0 5.07-1.33 6.49-3.52v-.01h-43.09a7.729 7.729 0 0 0 6.49 3.54z"/>
    <path class="st0" d="M221.47 44.84h5.79c3.94 0 7.14 3.2 7.14 7.14v38.77c0 2-.93 3.87-2.49 5.11-11.49 9.19-17.36 20.87-17.36 31.38 0 9.43 7.58 30.83 7.58 30.83h28.8s7.58-21.4 7.58-30.83c0-10.51-5.88-22.19-17.36-31.38-1.56-1.25-2.49-3.12-2.49-5.11V51.97c0-3.94 3.2-7.14 7.14-7.14h5.78c2.62 0 5.07-1.33 6.49-3.52v-.01h-43.09a7.729 7.729 0 0 0 6.49 3.54z"/>
    <path class="st0" d="M3.5 325.5h510v35.16H3.5z"/>
    <path class="st0" d="M3.5 3.5h510v35.16H3.5z"/>
    <path class="st0" d="M51.5 361.04h420v318h-420z"/>
    <path class="st0" d="M71 38.64h14v286.92H71z"/>
    <path class="st0" d="M435.5 38.64h14v286.92h-14z"/>
</svg>
