<svg id="Icons" xmlns="http://www.w3.org/2000/svg" viewBox="0 0 132.16 113.01">
    <style>
        .st0{fill:#3d3934}
    </style>
    <path class="st0" d="M24.89 23.32c-1.08 0-1.96-.88-1.96-1.96s.88-1.96 1.96-1.96h12.02c1.08 0 1.96.88 1.96 1.96s-.88 1.96-1.96 1.96H24.89zm70.35 23.47c-1.08 0-1.96-.88-1.96-1.96s.88-1.96 1.96-1.96h12.02c1.08 0 1.96.88 1.96 1.96s-.88 1.96-1.96 1.96H95.24zm-70.35 0c-1.08 0-1.96-.88-1.96-1.96s.88-1.96 1.96-1.96h12.02c1.08 0 1.96.88 1.96 1.96s-.88 1.96-1.96 1.96H24.89zm0 23.48c-1.08 0-1.96-.88-1.96-1.96s.88-1.96 1.96-1.96h12.02c1.08 0 1.96.88 1.96 1.96s-.88 1.96-1.96 1.96H24.89zm70.35 0c-1.08 0-1.96-.88-1.96-1.96s.88-1.96 1.96-1.96h12.02c1.08 0 1.96.88 1.96 1.96s-.88 1.96-1.96 1.96H95.24zm0 23.48c-1.08 0-1.96-.88-1.96-1.96s.88-1.96 1.96-1.96h12.02c1.08 0 1.96.88 1.96 1.96s-.88 1.96-1.96 1.96H95.24zm-70.35 0c-1.08 0-1.96-.88-1.96-1.96s.88-1.96 1.96-1.96h12.02c1.08 0 1.96.88 1.96 1.96s-.88 1.96-1.96 1.96H24.89zM6.07 7.65h122.15V3.93H3.93v3.72h2.14zm2.02 23.49h115.98V11.58H8.09v19.56zm115.98 3.91H8.09v19.57h115.98V35.05zM8.09 78.09h115.98V58.52H8.09v19.57zm115.65 27.4h-6.73l.56 3.58h5.62l.55-3.58zm-108.6 0H8.41l.56 3.58h5.62l.55-3.58zm-7.05-3.92H124.07V82H8.09v19.57zM1.96 0h128.23c1.08 0 1.96.88 1.96 1.96v7.65c0 1.08-.88 1.96-1.96 1.96h-2.2v92.09c0 .04-.01.07-.01.11V103.9l-.01.05v.03l-.01.03-1.14 7.34c-.15.97-.98 1.66-1.93 1.66v.01h-8.96c-1.04 0-1.89-.81-1.96-1.84l-.89-5.69H19.1l-.91 5.86c-.15.97-.98 1.66-1.93 1.66v.01H7.29c-1.04 0-1.89-.81-1.96-1.84l-1.14-7.34c-.02-.1-.02-.2-.02-.3h-.01V11.58h-2.2C.88 11.58 0 10.7 0 9.61V1.96C0 .88.88 0 1.96 0zm93.28 23.32c-1.08 0-1.96-.88-1.96-1.96s.88-1.96 1.96-1.96h12.02c1.08 0 1.96.88 1.96 1.96s-.88 1.96-1.96 1.96H95.24z"/>
</svg>
