<svg viewBox="-48 0 480 480.22562" xmlns="http://www.w3.org/2000/svg">
    <path d="M368.113 144h-48V40c-.027-22.082-17.918-39.973-40-40h-176c-22.082.027-39.972 17.918-40 40v104h-48c-8.832.012-15.992 7.168-16 16v32h32v64c.02 17.664 14.336 31.98 32 32 .008 8.832 7.168 15.988 16 16h88v32h-8v32h-80v59.059c-11.347 12.863-10.531 32.386 1.848 44.261 12.383 11.875 31.922 11.875 44.3 0 12.384-11.875 13.2-31.398 1.852-44.261V416h128v11.059c-11.347 12.863-10.531 32.386 1.848 44.261 12.383 11.875 31.922 11.875 44.3 0 12.384-11.875 13.2-31.398 1.852-44.261V368h-80v-32h-8v-32h88c8.832-.012 15.989-7.168 16-16 17.664-.02 31.98-14.336 32-32v-64h32v-32c-.011-8.832-7.168-15.988-16-16zm-288-104c.016-13.25 10.75-23.984 24-24h176c13.25.016 23.985 10.75 24 24v192.203a39.634 39.634 0 0 0-24-8.203h-176a39.625 39.625 0 0 0-24 8.203zm-64 136v-16h48v16zm32 80v-64h16v80c-8.832-.012-15.992-7.168-16-16zm56 208c-8.836 0-16-7.164-16-16s7.164-16 16-16 16 7.164 16 16c-.011 8.832-7.168 15.988-16 16zm176 0c-8.836 0-16-7.164-16-16s7.164-16 16-16 16 7.164 16 16c-.011 8.832-7.168 15.988-16 16zm8-80v33.137a28.72 28.72 0 0 0-16 0V400h-160v17.137a28.72 28.72 0 0 0-16 0V384zm-112-16v-16h32v16zm24-32h-16v-32h16zm-120-48v-24c.016-13.25 10.75-23.984 24-24h176c13.25.016 23.985 10.75 24 24v24zm256-32c-.011 8.832-7.168 15.988-16 16v-80h16zm32-80h-48v-16h48zm0 0"/>
    <path d="M272.113 112h16V48c-.011-8.832-7.168-15.988-16-16h-48v16h48zm0 0"/>
    <path d="M112.113 48h48V32h-48c-8.832.012-15.992 7.168-16 16v64h16zm0 0"/>
    <path d="M176.113 32h32v16h-32zm0 0"/>
</svg>
