<svg id="_x2014_лой_x5F_1" xmlns="http://www.w3.org/2000/svg" viewBox="0 0 154 154">
    <style>
        .st0{fill:#fff}
    </style>
    <path class="st0" d="M63.4 87.9c.5-.3.6-.9.3-1.4l-1.1-1.7c-.3-.5-.9-.6-1.4-.3-5.4 3.5-10.5 7.6-15 12.2l-30.6 30.6c-.4.4-.4 1 0 1.4l1.4 1.4c.4.4 1 .4 1.4 0L49 99.5c4.4-4.3 9.3-8.2 14.4-11.6z"/>
    <path class="st0" d="M69.6 91.8l-1.7-1.1c-.5-.3-1.1-.2-1.4.3-3.4 5.2-7.3 10-11.7 14.4L24.3 136c-.4.4-.4 1 0 1.4l1.4 1.4c.4.4 1 .4 1.4 0l30.6-30.6c4.6-4.6 8.7-9.6 12.2-15 .3-.4.2-1.1-.3-1.4z"/>
    <path class="st0" d="M138.9 131.5c-2 0-3.8.8-5.2 2.2-1.4 1.4-2.2 3.3-2.2 5.2 0 2 .8 3.8 2.2 5.2 1.4 1.4 3.3 2.2 5.2 2.2 2 0 3.8-.8 5.2-2.2 2.9-2.9 2.9-7.6 0-10.5-1.3-1.3-3.2-2.1-5.2-2.1zm2.4 9.8c-1.3 1.3-3.5 1.3-4.8 0-.6-.6-1-1.5-1-2.4s.4-1.8 1-2.4c.6-.6 1.5-1 2.4-1 .9 0 1.8.4 2.4 1 1.4 1.4 1.4 3.5 0 4.8z"/>
    <path class="st0" d="M149.6 128.3c-2.9-2.9-6.9-4.5-11.1-4.4L96.8 82.1l.4-.4c2-2-.1-5.7-1.2-6.8L91.1 70l37.2-37.2c3.5-3.5 7.4-6.7 11.5-9.5l3.1-2c1.6-1.1 3-2.5 4-4.2l5.3-8.8-7-7-8.8 5.3c-1.7 1-3.1 2.4-4.2 4l-2 3.1c-2.8 4.1-5.9 8-9.5 11.5L83.5 62.4l-3.9-3.9c-.9-.9-3-2-4.7-2-1.1 0-1.8.5-2.2.9l-.4.4-19-19.1c4.4-10.4 2.1-22.5-5.9-30.5C42.2 2.9 35.2 0 27.8 0c-3.3 0-6.6.6-9.7 1.7l-2.9 1.1 17.4 17.4-12.4 12.3L2.8 15.2l-1.1 2.9C-2 28.3.5 39.8 8.1 47.4c5.2 5.2 12.2 8.1 19.6 8.1 3.7 0 7.5-.8 10.9-2.2l21.2 21.2c-.4.3-.8.6-1.2.8l-11 7-43.7 43.9c-1.9 1.9-2 5.2-.4 9.6 1.2 3.2 3.2 6.5 4.9 8.2l1.9 1.9c2.5 2.5 9 6.1 13.7 6.1 1.8 0 3.2-.5 4.2-1.5L72 106.9l7.1-11.1c.3-.4.5-.8.8-1.2l43.9 43.9c-.1 4.1 1.5 8.1 4.4 11.1 2.8 2.8 6.6 4.4 10.7 4.4 4 0 7.8-1.6 10.7-4.4 5.9-5.9 5.9-15.4 0-21.3zM123.5 28c3.7-3.7 7-7.8 10-12.1l2-3.1c.7-1.1 1.8-2.1 2.9-2.8l6.2-3.7 2.6 2.6-3.7 6.2c-.7 1.1-1.7 2.2-2.8 2.9l-3.1 2c-4.3 2.9-8.4 6.3-12.1 10L88.3 67.2l-.9-.9-1-1L123.5 28zM38.2 49.1c-3.2 1.6-6.8 2.4-10.5 2.4-6.3 0-12.3-2.5-16.8-7-5.8-5.8-8.1-14.1-6.4-22l15.6 15.6 18-18L22.6 4.6c2.6-.6 5.3-.7 8-.4 3.4.4 6.6 1.5 9.5 3.3 10.7 6.7 14.3 20 9 30.8l-.6 1.3 21.3 21.3c0 .1 0 .1-.1.2-.5 1.5-1 2.9-1.7 4.2l-12-12c-.4-.4-1-.4-1.4 0l-1.4 1.4c-.4.4-.4 1 0 1.4l12.6 12.6C65 69.9 64 71 63 72L39.5 48.5l-1.3.6zM69 104.2l-43.6 43.6c-.2.2-.7.3-1.4.3-3.4 0-8.9-3-10.9-4.9l-1.9-1.9c-1.1-1.1-2.9-3.9-4-6.8-1.1-3-1.1-4.9-.6-5.4l43.6-43.6 10.6-6.7c6-3.8 10.5-9.7 12.7-16.5l1.7-1.8c.5.1 1.3.6 1.6.8l16.3 16.3c.3.3.7 1.1.8 1.6L92.2 81c-6.8 2.2-12.6 6.6-16.5 12.7L69 104.2zm78.9 41.3c-2.2 2.9-5.4 4.5-8.9 4.5-3.2 0-6.2-1.3-8.3-3.7-2.1-2.3-3-5.5-2.7-8.6l.1-.6-45.6-45.6c1-1 2.1-2 3.3-2.9l33 33c.4.4 1 .4 1.4 0l1.4-1.4c.4-.4.4-1 0-1.4L89.3 86.5c1.3-.7 2.8-1.3 4.2-1.7.1 0 .1 0 .2-.1L137 128l.9-.1c4.4-.4 8.6 1.8 10.8 5.9 2 3.7 1.7 8.3-.8 11.7z"/>
</svg>
