<svg id="Icons" xmlns="http://www.w3.org/2000/svg" viewBox="0 0 127.9 121.1">
    <style>
        .st0{fill-rule:evenodd;clip-rule:evenodd;fill:#3d3934}
    </style>
    <path class="st0" d="M93.9 3.9h-60c-3.6 0-7 1.4-9.3 3.6-2.4 2.2-3.8 5.3-3.8 8.6v25.3c.2 0 .4 0 .6.1.5.1 1 .2 1.5.4h.5c.1 0 .1.1.2.1h.1c.1.1.2.1.4.2H24.4l.1.1h.4c.1.1.2.1.3.2h.1c.1.1.2.1.3.2h.1c1.6 1.3 2.5 3 2.5 5v12.4c.6-.1 1.1-.2 1.7-.2h68.4c.6 0 1.2.1 1.7.2V48.4c0-2 1-3.8 2.5-5l.2-.2.1-.1h.2c.1-.1.3-.2.4-.3h.1c.1 0 .1-.1.2-.1h.1l.1-.1h.2c.3-.1.6-.3 1-.4.7-.2 1.4-.4 2.2-.5V16.1c0-3.3-1.5-6.4-3.8-8.6-2.6-2.2-5.9-3.6-9.6-3.6zm6.5 61.6l-.1-.1-.1-.1c-.2-.2-.5-.4-.8-.5-.1 0-.2-.1-.3-.1-.3-.1-.6-.1-.9-.1H29.7c-.3 0-.6 0-.9.1-.1 0-.2.1-.3.1h-.1c-.3.1-.5.3-.8.5l-.1.1-.1.1c-.3.4-.5.9-.5 1.4V82c0 .6.3 1.2.8 1.6.5.5 1.2.8 2 .8h68.4c.8 0 1.5-.3 2-.8.5-.4.8-1 .8-1.6V66.9c0-.6-.2-1.1-.5-1.4zm8.7-20.1H108c-1.2 0-2.3.4-3.1 1-.7.5-1.1 1.2-1.1 2v15.1c.6.9 1 2.1 1.1 3.3V82c0 1.8-.8 3.4-2 4.5s-2.9 1.8-4.7 1.8H29.7c-1.8 0-3.5-.7-4.7-1.8-1.3-1.2-2-2.8-2-4.5V66.9c0-1.3.4-2.4 1.1-3.4V48.4c0-.7-.4-1.5-1.1-2-.8-.6-1.9-1-3.1-1H8.1c-1.2 0-2.3.4-3.1 1-.7.5-1.1 1.2-1.1 2v58.7c0 .7.4 1.5 1.1 2 .8.6 1.9 1 3.1 1h11.7c.9 0 1.8-.2 2.5-.6.6-.3 1.1-.8 1.4-1.3.3-.7 1-1.2 1.8-1.2h76.7c.7 0 1.4.4 1.7 1.1.3.6.8 1 1.5 1.4.7.4 1.5.6 2.5.6h11.7c1.2 0 2.3-.4 3.1-1 .7-.5 1.1-1.2 1.1-2V48.4c0-.7-.4-1.5-1.1-2-.8-.6-1.9-1-3.1-1h-10.5zM33.9 0h60c4.7 0 8.9 1.8 12 4.7 3.1 2.9 5.1 7 5.1 11.4v25.3h8.7c2.2 0 4.1.7 5.6 1.9 1.6 1.3 2.5 3 2.5 5V107c0 2-1 3.8-2.5 5-1.2 1-2.9 1.7-4.6 1.9l-.8 5.2c-.5 2.9-8 1.7-10 1.7-1 0-1.8-.7-1.9-1.7l-.8-5.2c-1.2-.1-2.4-.5-3.4-1-.9-.5-1.8-1.2-2.4-2H26.6c-.6.8-1.5 1.5-2.4 2-1 .5-2.2.9-3.4 1l-.8 5.2c-.5 2.9-8 1.7-10 1.7-1 0-1.8-.7-1.9-1.7l-.9-5.1c-1.8-.2-3.4-.9-4.6-1.9-1.6-1.3-2.5-3-2.5-5V48.4c0-2 1-3.8 2.5-5 1.4-1.2 3.4-2 5.5-2h8.7V16.1c0-4.5 1.9-8.5 5.1-11.4C25 1.8 29.3 0 33.9 0zM16.8 114.1h-5.7l.4 2.9h4.8l.5-2.9zm99.9 0H111l.4 2.9h4.8l.5-2.9z"/>
</svg>
