<svg id="Layer_1" xmlns="http://www.w3.org/2000/svg" viewBox="0 0 31.99 49.06">
    <style>
        .st0{fill:#000}
    </style>
    <path class="st0" d="M18.31 8.71l.16-.16.22-.18.29-.19.34-.19.36-.17.64-.26 1.01-.33 1.09-.28 1.12-.23 1.11-.18 1.06-.14.74-.08.45-.04.42-.04.38-.03.34-.02.29-.02.24-.01.18-.01.12-.01H28.94c1.57.11 2.94-1.07 3.05-2.64A2.854 2.854 0 0 0 29.35.45h-.01l-.08-.01-.16-.02-.22-.03-.28-.05-.34-.04-.39-.05-.43-.05-.48-.05-.52-.04-.83-.06L24.4.01 23.07 0l-1.39.04-1.44.11-1.46.2-1.13.24-.78.21-.74.25-.74.29-.73.36-.73.42-.71.51-.69.6-.64.71-.58.83-.31.58-.09.21-.06.11-.18.47-.17.52-.15.51-.13.51-.12.52-.15.79-.18 1.14-.17 1.24-.15 1.32-.14 1.4-.13 1.47-.1 1.53-.09 1.58-.03.69-1.11.17-5 .93C1.28 20.46 0 21.74 0 23.32s1.28 2.85 2.85 2.85l5 .94 1.01.16.03 2.27.08 2.46.07 1.59.09 1.53.1 1.46.11 1.38.12 1.3.11 1.2.12 1.09.11.97.1.83.07.53.04.31.04.27.03.23.03.18.02.14.01.1.01.05v.01a4.117 4.117 0 0 0 4.31 3.92 4.117 4.117 0 0 0 3.92-4.31v-.14l.01-.14.01-.18.01-.22.01-.26.02-.3.02-.52.03-.83.04-.96.04-1.08.02-1.19.03-1.28.02-1.37.01-1.44.01-1.51-.01-1.55-.02-2.4-.02-1.24 4.24-.26 2.82-.44a4.12 4.12 0 0 0 0-8.24l-2.82-.44-4.43-.27-.03-1.16-.02-1.44-.02-1.36-.01-1.27.01-1.16.02-1.03.04-.9.04-.57.03-.3.02-.24.01-.17-.01-.09v-.09l.04-.12-.09.21-.11.15-.08.01-.04-.05.02-.1.07-.13z"/>
</svg>
