<svg id="Layer_1" xmlns="http://www.w3.org/2000/svg" viewBox="0 0 42.73 55.84">
    <style>
        .st0{fill:#000}
    </style>
    <path class="st0" d="M42.7 17.71l-.12-1.51-.22-1.51-.33-1.51-.45-1.49-.56-1.43-.5-1.04-.39-.7-.43-.69-.47-.67-.5-.65-.53-.62-.58-.61L37 4.7l-.65-.55-.69-.52-.73-.49-.76-.46-.8-.42-.83-.39-.86-.35-.9-.32-.93-.28-.96-.24-.99-.2-1.02-.17-1.05-.13-1.09-.1-1.12-.06L22.47 0l-1.19.02-1.2.05-.58.04h-.05l-.66.06-1.23.13-1.19.17-1.14.21-1.1.24-1.05.28-1.01.3-.97.35-.93.38-.88.42-.84.45-.8.48-.75.5-.72.54-.67.56-.62.58-.59.61-.54.62-.5.64-.45.66-.42.67-.39.72-.5 1.06-.53 1.39-.4 1.4-.28 1.4-.18 1.38-.09 1.36L0 19.02l.05 1.3.11 1.26.16 1.21.19 1.15.22 1.09.24 1.02.25.95.25.86.24.76.22.66.2.55.12.33.07.19.06.15.05.12.04.09.02.05a2.524 2.524 0 0 0 3.28 1.4 2.521 2.521 0 0 0 1.4-3.27l-.01-.02-.02-.06-.03-.11-.04-.12-.05-.15-.09-.29-.14-.48-.16-.58-.17-.67-.17-.75-.17-.83-.15-.89-.14-.94-.11-.98L5.65 21l-.03-1.04.02-1.05.07-1.05.13-1.03.2-1.01.26-.98.34-.94.41-.89.34-.61.25-.38.28-.39.3-.38.33-.37.35-.35.38-.34.4-.33.43-.32.46-.3.5-.29.53-.27.57-.26.61-.24.66-.22.7-.21.75-.19.8-.17.84-.14.9-.12.95-.09 1-.06.49-.02h-.05l.58-.01h1.05l.97.03.93.06.88.09.83.11.78.14.74.16.69.18.65.2.6.22.57.23.52.25.49.26.45.27.42.28.39.29.36.3.33.31.31.32.28.33.26.34.24.35.22.36.21.38.19.39.27.64.29.89.21.89.15.94.09.98.03 1.01-.03 1.03-.08 1.05-.14 1.06-.18 1.05-.23 1.04-.27 1.02-.3.99-.33.95-.36.9-.37.84-.38.77-.39.69-.38.59-.15.21.08-.12-.25.34-.4.47-.4.41-.44.39-.48.37-.51.35-.54.32-.56.28-.57.24-.57.2-.57.15-.56.1-.54.05h-.52l-.49-.04-.45-.09-.42-.13-.39-.17-.37-.21-.36-.26-.35-.31-.22-.24-.14-.17-.18-.23-.18-.26-.18-.29-.04-.08.11-.47.34-1.56.32-1.53.3-1.48.27-1.43.24-1.37.2-1.29.12-.91.07-.6.06-.58.04-.57.03-.55.01-.55-.01-.55-.03-.56-.07-.59-.13-.64-.23-.74-.32-.68-.04-.08c-.05-.09-.11-.18-.17-.27l-.29-.4-.55-.64-.71-.62-.92-.54-1.1-.36-1.18-.1-1.1.16-1.07.42-1.05.71-.82.82-.57.77-.44.74-.36.72-.31.69-.26.65-.22.6-.18.53-.13.44-.08.25-.04.14-.03.1-.02.06v.01c-.08.32-.13.65-.14.98l-.01.6-.01 1.12.02 1.09.04 1.06.07 1.03.09 1 .12.97.14.94.17.91.19.88.22.85.25.83.27.8.14.37-.03.14-.68 3.15-.51 2.31-.33 1.5-.33 1.46L9.7 43l-.3 1.33-.29 1.25-.27 1.15-.24 1.05-.17.71-.1.44-.1.4-.09.37-.08.33-.07.3-.06.26-.06.21-.04.18-.03.13-.03.09-.01.04c-.53 1.93.61 3.93 2.54 4.47 1.93.53 3.93-.61 4.46-2.54v-.01l.01-.05.03-.09.04-.14.05-.18.07-.22.08-.26.09-.3.1-.33.11-.37.12-.4.13-.44.21-.71.31-1.05.33-1.16.35-1.25.37-1.33.39-1.4.4-1.46.32-1.18.25.15 1.23.56 1.26.42 1.27.28 1.26.15 1.25.03 1.23-.08 1.2-.18 1.17-.27 1.14-.35 1.11-.43 1.07-.5 1.03-.57.99-.63.94-.7.89-.76.84-.81.78-.87.67-.86.24-.35c.03-.04.06-.08.08-.12l.33-.51.57-.97.54-1.04.51-1.1.48-1.16.44-1.22.4-1.27.36-1.32.31-1.36.25-1.4.19-1.44.13-1.46.05-1.48-.03-1.51zm-23.03 1.46l.03.01-.18.25.05-.09.1-.17z"/>
</svg>
