<svg xmlns="http://www.w3.org/2000/svg" viewBox="0 0 554.97 347.34">
    <path d="M531.16 67.36H23.81C10.66 67.36 0 56.69 0 43.54V23.81C0 10.66 10.66 0 23.81 0h507.34c13.15 0 23.81 10.66 23.81 23.81v19.73c.01 13.15-10.65 23.82-23.8 23.82z"/>
    <path d="M531.16 204.85H23.81C10.66 204.85 0 194.19 0 181.04v-19.73c0-13.15 10.66-23.81 23.81-23.81h507.34c13.15 0 23.81 10.66 23.81 23.81v19.73c.01 13.15-10.65 23.81-23.8 23.81z"/>
    <path d="M531.16 347.34H23.81C10.66 347.34 0 336.68 0 323.53V303.8c0-13.15 10.66-23.81 23.81-23.81h507.34c13.15 0 23.81 10.66 23.81 23.81v19.73c.01 13.15-10.65 23.81-23.8 23.81z"/>
</svg>
