<?xml version="1.0" encoding="UTF-8" standalone="no"?>
<svg
   xmlns:dc="http://purl.org/dc/elements/1.1/"
   xmlns:cc="http://creativecommons.org/ns#"
   xmlns:rdf="http://www.w3.org/1999/02/22-rdf-syntax-ns#"
   xmlns:svg="http://www.w3.org/2000/svg"
   xmlns="http://www.w3.org/2000/svg"
   viewBox="0 0 160.07867 160.09467"
   height="160.09467"
   width="160.07867"
   xml:space="preserve"
   id="svg2"
   version="1.1"><metadata
     id="metadata8"><rdf:RDF><cc:Work
         rdf:about=""><dc:format>image/svg+xml</dc:format><dc:type
           rdf:resource="http://purl.org/dc/dcmitype/StillImage" /></cc:Work></rdf:RDF></metadata><defs
     id="defs6"><clipPath
       id="clipPath18"
       clipPathUnits="userSpaceOnUse"><path
         id="path16"
         d="M 0,120.071 H 120.059 V 0 H 0 Z" /></clipPath></defs><g
     transform="matrix(1.3333333,0,0,-1.3333333,0,160.09467)"
     id="g10"><g
       id="g12"><g
         clip-path="url(#clipPath18)"
         id="g14"><g
           transform="translate(49.6393,51.6567)"
           id="g20"><path
             id="path22"
             style="fill:#1d1d1b;fill-opacity:1;fill-rule:nonzero;stroke:none"
             d="M 0,0 C 0.351,0.229 0.455,0.694 0.23,1.047 L -0.593,2.341 C -0.822,2.702 -1.306,2.81 -1.664,2.577 -5.816,-0.129 -9.69,-3.271 -13.191,-6.772 l -23.467,-23.467 c -0.299,-0.3 -0.299,-0.785 0,-1.084 l 1.085,-1.084 c 0.299,-0.3 0.784,-0.3 1.084,0 l 23.466,23.466 C -7.675,-5.593 -3.97,-2.587 0,0" /></g><g
           transform="translate(49.6393,51.6567)"
           id="g24"><path
             id="path26"
             style="fill:none;stroke:#000000;stroke-width:2;stroke-linecap:butt;stroke-linejoin:miter;stroke-miterlimit:10;stroke-dasharray:none;stroke-opacity:1"
             d="M 0,0 C 0.351,0.229 0.455,0.694 0.23,1.047 L -0.593,2.341 C -0.822,2.702 -1.306,2.81 -1.664,2.577 -5.816,-0.129 -9.69,-3.271 -13.191,-6.772 l -23.467,-23.467 c -0.299,-0.3 -0.299,-0.785 0,-1.084 l 1.085,-1.084 c 0.299,-0.3 0.784,-0.3 1.084,0 l 23.466,23.466 C -7.675,-5.593 -3.97,-2.587 0,0 Z" /></g><g
           transform="translate(54.3727,48.6714)"
           id="g28"><path
             id="path30"
             style="fill:#1d1d1b;fill-opacity:1;fill-rule:nonzero;stroke:none"
             d="m 0,0 -1.293,0.823 c -0.354,0.225 -0.819,0.121 -1.048,-0.23 -2.586,-3.968 -5.592,-7.674 -8.942,-11.023 l -23.464,-23.465 c -0.299,-0.299 -0.299,-0.784 0,-1.084 l 1.084,-1.084 c 0.3,-0.299 0.785,-0.299 1.084,0 l 23.465,23.465 c 3.503,3.502 6.645,7.377 9.349,11.527 C 0.468,-0.712 0.361,-0.229 0,0" /></g><g
           transform="translate(54.3727,48.6714)"
           id="g32"><path
             id="path34"
             style="fill:none;stroke:#000000;stroke-width:2;stroke-linecap:butt;stroke-linejoin:miter;stroke-miterlimit:10;stroke-dasharray:none;stroke-opacity:1"
             d="m 0,0 -1.293,0.823 c -0.354,0.225 -0.819,0.121 -1.048,-0.23 -2.586,-3.968 -5.592,-7.674 -8.942,-11.023 l -23.464,-23.465 c -0.299,-0.299 -0.299,-0.784 0,-1.084 l 1.084,-1.084 c 0.3,-0.299 0.785,-0.299 1.084,0 l 23.465,23.465 c 3.503,3.502 6.645,7.377 9.349,11.527 C 0.468,-0.712 0.361,-0.229 0,0 Z" /></g><g
           transform="translate(109.3595,10.7056)"
           id="g36"><path
             id="path38"
             style="fill:#1d1d1b;fill-opacity:1;fill-rule:nonzero;stroke:none"
             d="m 0,0 c -0.985,-0.984 -2.7,-0.984 -3.685,0 -0.492,0.493 -0.763,1.146 -0.763,1.842 0,0.696 0.271,1.351 0.763,1.843 0.492,0.492 1.146,0.763 1.843,0.763 0.696,0 1.35,-0.271 1.842,-0.763 C 1.016,2.669 1.016,1.016 0,0 m -1.842,7.515 c -1.515,0 -2.94,-0.59 -4.012,-1.661 -1.071,-1.072 -1.661,-2.497 -1.661,-4.012 0,-1.515 0.59,-2.939 1.661,-4.01 1.072,-1.072 2.496,-1.662 4.012,-1.662 1.515,0 2.939,0.59 4.01,1.662 2.211,2.211 2.211,5.81 0,8.022 -1.071,1.071 -2.495,1.661 -4.01,1.661" /></g><g
           transform="translate(109.3595,10.7056)"
           id="g40"><path
             id="path42"
             style="fill:none;stroke:#000000;stroke-width:2;stroke-linecap:butt;stroke-linejoin:miter;stroke-miterlimit:10;stroke-dasharray:none;stroke-opacity:1"
             d="m 0,0 c -0.985,-0.984 -2.7,-0.984 -3.685,0 -0.492,0.493 -0.763,1.146 -0.763,1.842 0,0.696 0.271,1.351 0.763,1.843 0.492,0.492 1.146,0.763 1.843,0.763 0.696,0 1.35,-0.271 1.842,-0.763 C 1.016,2.669 1.016,1.016 0,0 Z m -1.842,7.515 c -1.515,0 -2.94,-0.59 -4.012,-1.661 -1.071,-1.072 -1.661,-2.497 -1.661,-4.012 0,-1.515 0.59,-2.939 1.661,-4.01 1.072,-1.072 2.496,-1.662 4.012,-1.662 1.515,0 2.939,0.59 4.01,1.662 2.211,2.211 2.211,5.81 0,8.022 -1.071,1.071 -2.495,1.661 -4.01,1.661 z" /></g><g
           transform="translate(114.3708,7.5449)"
           id="g44"><path
             id="path46"
             style="fill:#1d1d1b;fill-opacity:1;fill-rule:nonzero;stroke:none"
             d="m 0,0 c -1.651,-2.228 -4.157,-3.478 -6.854,-3.478 -2.439,0 -4.721,1.022 -6.356,2.865 -1.594,1.797 -2.282,4.226 -2.067,6.619 l 0.044,0.48 -34.876,34.876 c 0.783,0.801 1.628,1.536 2.531,2.197 l 25.274,-25.274 c 0.3,-0.3 0.785,-0.3 1.085,0 l 1.084,1.084 c 0.299,0.299 0.299,0.784 0,1.084 l -24.772,24.771 c 1.035,0.533 2.118,0.981 3.24,1.331 0.041,0.013 0.079,0.026 0.118,0.04 l 33.212,-33.212 0.715,0.065 C -4.271,13.749 -1,12.066 0.67,8.935 2.179,6.105 1.91,2.576 0,0 M -60.479,31.613 -93.888,-1.795 c -0.17,-0.17 -0.558,-0.268 -1.064,-0.268 -2.609,0.001 -6.847,2.276 -8.322,3.75 l -1.49,1.49 c -0.879,0.879 -2.212,2.957 -3.06,5.229 -0.856,2.29 -0.819,3.76 -0.423,4.157 l 33.409,33.408 8.126,5.169 c 4.611,2.934 8.055,7.411 9.708,12.618 l 1.314,1.352 c 0.389,-0.109 1,-0.428 1.195,-0.624 l 12.53,-12.529 c 0.195,-0.196 0.514,-0.807 0.624,-1.196 l -1.353,-1.314 c -5.207,-1.653 -9.683,-5.097 -12.617,-9.708 z m -23.59,42.243 c -2.476,-1.211 -5.25,-1.852 -8.022,-1.852 -4.867,0 -9.442,1.895 -12.883,5.336 -4.434,4.434 -6.237,10.841 -4.898,16.868 l 11.968,-11.967 13.812,13.813 -11.969,11.968 c 1.999,0.446 4.068,0.552 6.163,0.312 2.585,-0.298 5.097,-1.155 7.31,-2.525 8.238,-5.1 10.926,-15.326 6.881,-23.591 l -0.481,-0.983 16.332,-16.333 c -0.015,-0.039 -0.028,-0.079 -0.04,-0.119 -0.35,-1.122 -0.798,-2.204 -1.331,-3.239 l -9.165,9.165 c -0.299,0.299 -0.785,0.299 -1.084,0 l -1.084,-1.084 c -0.299,-0.299 -0.299,-0.785 0,-1.084 l 9.668,-9.668 c -0.66,-0.903 -1.396,-1.747 -2.197,-2.531 l -17.996,17.996 z m 65.394,16.179 c 2.835,2.835 5.403,5.964 7.632,9.3 l 1.565,2.343 c 0.572,0.857 1.342,1.591 2.224,2.123 l 4.716,2.843 1.97,-1.969 -2.844,-4.717 c -0.531,-0.881 -1.265,-1.65 -2.123,-2.223 l -2.343,-1.566 c -3.335,-2.228 -6.464,-4.795 -9.299,-7.631 l -28.516,-28.517 -0.708,0.709 -0.79,0.79 z M 1.312,13.168 c -2.252,2.253 -5.263,3.466 -8.473,3.376 l -32.03,32.03 0.312,0.303 c 1.52,1.522 -0.04,4.371 -0.918,5.248 l -3.727,3.728 28.515,28.516 c 2.694,2.694 5.667,5.133 8.835,7.25 l 2.344,1.566 c 1.23,0.822 2.283,1.925 3.045,3.19 l 4.082,6.771 -5.363,5.363 -6.772,-4.082 c -1.266,-0.763 -2.369,-1.816 -3.19,-3.046 l -1.566,-2.343 c -2.117,-3.169 -4.556,-6.142 -7.25,-8.834 l -28.515,-28.516 -2.968,2.967 c -0.654,0.654 -2.262,1.56 -3.581,1.56 -0.846,0 -1.373,-0.35 -1.682,-0.659 l -0.287,-0.296 -14.615,14.616 c 3.399,7.96 1.642,17.243 -4.53,23.416 -4.02,4.02 -9.366,6.234 -15.053,6.234 -2.547,0 -5.044,-0.447 -7.424,-1.33 l -2.241,-0.831 13.311,-13.311 -9.475,-9.476 -13.312,13.312 -0.831,-2.243 c -2.887,-7.787 -0.962,-16.609 4.905,-22.475 4.02,-4.02 9.366,-6.234 15.051,-6.234 2.866,0 5.736,0.586 8.364,1.704 l 16.278,-16.278 c -0.3,-0.215 -0.595,-0.437 -0.908,-0.636 l -8.411,-5.35 -33.647,-33.647 c -1.451,-1.45 -1.548,-4.008 -0.282,-7.398 0.912,-2.443 2.426,-4.985 3.765,-6.324 l 1.49,-1.49 c 1.895,-1.895 6.923,-4.648 10.489,-4.648 h 0.001 c 1.371,0 2.458,0.392 3.232,1.165 l 33.528,33.528 5.468,8.529 c 0.2,0.313 0.422,0.609 0.637,0.909 L -18.395,5.311 c -0.085,-3.166 1.123,-6.221 3.376,-8.474 2.181,-2.181 5.081,-3.382 8.165,-3.382 3.084,0 5.985,1.201 8.166,3.382 4.502,4.503 4.502,11.829 0,16.331" /></g><g
           transform="translate(114.3708,7.5449)"
           id="g48"><path
             id="path50"
             style="fill:none;stroke:#000000;stroke-width:2;stroke-linecap:butt;stroke-linejoin:miter;stroke-miterlimit:10;stroke-dasharray:none;stroke-opacity:1"
             d="m 0,0 c -1.651,-2.228 -4.157,-3.478 -6.854,-3.478 -2.439,0 -4.721,1.022 -6.356,2.865 -1.594,1.797 -2.282,4.226 -2.067,6.619 l 0.044,0.48 -34.876,34.876 c 0.783,0.801 1.628,1.536 2.531,2.197 l 25.274,-25.274 c 0.3,-0.3 0.785,-0.3 1.085,0 l 1.084,1.084 c 0.299,0.299 0.299,0.784 0,1.084 l -24.772,24.771 c 1.035,0.533 2.118,0.981 3.24,1.331 0.041,0.013 0.079,0.026 0.118,0.04 l 33.212,-33.212 0.715,0.065 C -4.271,13.749 -1,12.066 0.67,8.935 2.179,6.105 1.91,2.576 0,0 Z M -60.479,31.613 -93.888,-1.795 c -0.17,-0.17 -0.558,-0.268 -1.064,-0.268 -2.609,0.001 -6.847,2.276 -8.322,3.75 l -1.49,1.49 c -0.879,0.879 -2.212,2.957 -3.06,5.229 -0.856,2.29 -0.819,3.76 -0.423,4.157 l 33.409,33.408 8.126,5.169 c 4.611,2.934 8.055,7.411 9.708,12.618 l 1.314,1.352 c 0.389,-0.109 1,-0.428 1.195,-0.624 l 12.53,-12.529 c 0.195,-0.196 0.514,-0.807 0.624,-1.196 l -1.353,-1.314 c -5.207,-1.653 -9.683,-5.097 -12.617,-9.708 z m -23.59,42.243 c -2.476,-1.211 -5.25,-1.852 -8.022,-1.852 -4.867,0 -9.442,1.895 -12.883,5.336 -4.434,4.434 -6.237,10.841 -4.898,16.868 l 11.968,-11.967 13.812,13.813 -11.969,11.968 c 1.999,0.446 4.068,0.552 6.163,0.312 2.585,-0.298 5.097,-1.155 7.31,-2.525 8.238,-5.1 10.926,-15.326 6.881,-23.591 l -0.481,-0.983 16.332,-16.333 c -0.015,-0.039 -0.028,-0.079 -0.04,-0.119 -0.35,-1.122 -0.798,-2.204 -1.331,-3.239 l -9.165,9.165 c -0.299,0.299 -0.785,0.299 -1.084,0 l -1.084,-1.084 c -0.299,-0.299 -0.299,-0.785 0,-1.084 l 9.668,-9.668 c -0.66,-0.903 -1.396,-1.747 -2.197,-2.531 l -17.996,17.996 z m 65.394,16.179 c 2.835,2.835 5.403,5.964 7.632,9.3 l 1.565,2.343 c 0.572,0.857 1.342,1.591 2.224,2.123 l 4.716,2.843 1.97,-1.969 -2.844,-4.717 c -0.531,-0.881 -1.265,-1.65 -2.123,-2.223 l -2.343,-1.566 c -3.335,-2.228 -6.464,-4.795 -9.299,-7.631 l -28.516,-28.517 -0.708,0.709 -0.79,0.79 z M 1.312,13.168 c -2.252,2.253 -5.263,3.466 -8.473,3.376 l -32.03,32.03 0.312,0.303 c 1.52,1.522 -0.04,4.371 -0.918,5.248 l -3.727,3.728 28.515,28.516 c 2.694,2.694 5.667,5.133 8.835,7.25 l 2.344,1.566 c 1.23,0.822 2.283,1.925 3.045,3.19 l 4.082,6.771 -5.363,5.363 -6.772,-4.082 c -1.266,-0.763 -2.369,-1.816 -3.19,-3.046 l -1.566,-2.343 c -2.117,-3.169 -4.556,-6.142 -7.25,-8.834 l -28.515,-28.516 -2.968,2.967 c -0.654,0.654 -2.262,1.56 -3.581,1.56 -0.846,0 -1.373,-0.35 -1.682,-0.659 l -0.287,-0.296 -14.615,14.616 c 3.399,7.96 1.642,17.243 -4.53,23.416 -4.02,4.02 -9.366,6.234 -15.053,6.234 -2.547,0 -5.044,-0.447 -7.424,-1.33 l -2.241,-0.831 13.311,-13.311 -9.475,-9.476 -13.312,13.312 -0.831,-2.243 c -2.887,-7.787 -0.962,-16.609 4.905,-22.475 4.02,-4.02 9.366,-6.234 15.051,-6.234 2.866,0 5.736,0.586 8.364,1.704 l 16.278,-16.278 c -0.3,-0.215 -0.595,-0.437 -0.908,-0.636 l -8.411,-5.35 -33.647,-33.647 c -1.451,-1.45 -1.548,-4.008 -0.282,-7.398 0.912,-2.443 2.426,-4.985 3.765,-6.324 l 1.49,-1.49 c 1.895,-1.895 6.923,-4.648 10.489,-4.648 h 0.001 c 1.371,0 2.458,0.392 3.232,1.165 l 33.528,33.528 5.468,8.529 c 0.2,0.313 0.422,0.609 0.637,0.909 L -18.395,5.311 c -0.085,-3.166 1.123,-6.221 3.376,-8.474 2.181,-2.181 5.081,-3.382 8.165,-3.382 3.084,0 5.985,1.201 8.166,3.382 4.502,4.503 4.502,11.829 0,16.331 z" /></g></g></g></g></svg>