<svg xmlns="http://www.w3.org/2000/svg" viewBox="0 0 48 32"><defs><style>.cls-1{fill:none;stroke:#505050;stroke-miterlimit:10;stroke-width:2px;}</style></defs><title>Ресурс 1</title><g id="Слой_2" data-name="Слой 2"><g id="icons"><path class="cls-1" d="M31,9h7.94a2,2,0,0,1,1.66.87L44,16h1a2,2,0,0,1,2,2.21V25a2,2,0,0,1-2,2H43"/><polyline class="cls-1" points="17 1 31 1 31 27 15 27"/><line class="cls-1" x1="7" y1="27" x2="2" y2="27"/><path class="cls-1" d="M43,27a4,4,0,1,1-4-4A4,4,0,0,1,43,27Z"/><path class="cls-1" d="M15,27a4,4,0,1,1-4-4A4,4,0,0,1,15,27Z"/><line class="cls-1" x1="31" y1="27" x2="35" y2="27"/><polyline class="cls-1" points="33 17 40 17 42 16 44 16"/><line class="cls-1" y1="16" x2="17" y2="16"/><line class="cls-1" x1="3" y1="6" x2="26" y2="6"/><line class="cls-1" x1="9" y1="11" x2="24" y2="11"/><line class="cls-1" x1="7" y1="11" x2="5" y2="11"/><line class="cls-1" x1="15" y1="1" x2="13" y2="1"/></g></g></svg>