<svg id="logo" xmlns="http://www.w3.org/2000/svg" viewBox="0 0 110.29 109.26">
    <style>
        .st0{fill:#000}.st1{fill:none;stroke:#000;stroke-width:2;stroke-miterlimit:10}
    </style>
    <path class="st0" d="M0 98.67V9.6C0 4.32 4.32 0 9.6 0c5.28 0 9.6 4.32 9.6 9.6v89.07c0 5.28-4.32 9.6-9.6 9.6-5.28-.01-9.6-4.33-9.6-9.6z"/>
    <path class="st1" d="M109.29 61.94c0-5.07-4.15-9.21-9.21-9.21H10.24c-5.07 0-9.21 4.15-9.21 9.21v.77c0 5.07 4.15 9.21 9.21 9.21h79.85v27.13c0 5.07 4.15 9.21 9.21 9.21h.77c5.07 0 9.21-4.15 9.21-9.21V63.39c0-.12-.01-.23-.02-.34 0-.11.02-.23.02-.34v-.77z"/>
</svg>
