<svg id="logo" xmlns="http://www.w3.org/2000/svg" viewBox="0 0 110.52 110.26">
    <style>
        .st0{fill:none;stroke:#000;stroke-width:2;stroke-miterlimit:10}.st1{fill:#000}
    </style>
    <path class="st0" d="M1 99.67V10.6C1 5.32 5.32 1 10.6 1c5.28 0 9.6 4.32 9.6 9.6v89.07c0 5.28-4.32 9.6-9.6 9.6-5.28-.01-9.6-4.33-9.6-9.6z"/>
    <path class="st0" d="M90.32 99.67v-34.9c0-5.28 4.32-9.6 9.6-9.6 5.28 0 9.6 4.32 9.6 9.6v34.89c0 5.28-4.32 9.6-9.6 9.6-5.28 0-9.6-4.32-9.6-9.59z"/>
    <path class="st1" d="M10.09 53.72h89.07c5.28 0 9.6 4.32 9.6 9.6 0 5.28-4.32 9.6-9.6 9.6H10.09c-5.28 0-9.6-4.32-9.6-9.6 0-5.28 4.32-9.6 9.6-9.6z"/>
</svg>
