<svg id="logo" xmlns="http://www.w3.org/2000/svg" viewBox="0 0 110.52 110.26">
    <style>
        .st0{fill:#000}.st1{fill:none;stroke:#000;stroke-width:2;stroke-miterlimit:10}
    </style>
    <path class="st0" d="M90.9 99.67V63.32c0-5.28 4.32-9.6 9.6-9.6 5.28 0 9.6 4.32 9.6 9.6v36.34c0 5.28-4.32 9.6-9.6 9.6-5.28 0-9.6-4.32-9.6-9.59z"/>
    <path class="st1" d="M100.31 53.72H20.2V10.21C20.2 5.15 16.05 1 10.98 1h-.77C5.15 1 1 5.15 1 10.21v89.84c0 5.07 4.15 9.21 9.21 9.21h.77c5.07 0 9.21-4.15 9.21-9.21V72.92h80.11c5.07 0 9.21-4.15 9.21-9.21v-.77c.01-5.07-4.14-9.22-9.2-9.22z"/>
</svg>
