<svg id="logo" xmlns="http://www.w3.org/2000/svg" viewBox="0 0 172.16 110.26">
    <style>
        .st0{fill:#000}.st1{fill:none;stroke:#000;stroke-width:2;stroke-miterlimit:10}
    </style>
    <path class="st0" d="M9.76 51.42h152.32c5.28 0 9.6 4.32 9.6 9.6 0 5.28-4.32 9.6-9.6 9.6H9.76c-5.28 0-9.6-4.32-9.6-9.6 0-5.28 4.32-9.6 9.6-9.6z"/>
    <path class="st1" d="M171.16 10.34c0-1.94-.61-3.74-1.64-5.23-1.66-2.47-4.48-4.11-7.66-4.11h-.77c-.5 0-.98.05-1.46.13H12.44c-.48-.08-.96-.13-1.46-.13h-.77C5.15 1 1 5.15 1 10.21v89.84c0 5.07 4.15 9.21 9.21 9.21h.77c5.07 0 9.21-4.15 9.21-9.21V20.32h57.59c-.08.47-.13.96-.13 1.45v35.66c0 5.07 4.15 9.21 9.21 9.21h.77c5.07 0 9.21-4.15 9.21-9.21V21.78c0-.49-.05-.98-.13-1.45h55.15v79.73c0 5.07 4.15 9.21 9.21 9.21h.77c5.07 0 9.21-4.15 9.21-9.21V12.32c.05-.4.09-.8.09-1.21v-.77z"/>
</svg>
