<?xml version="1.0" standalone="no"?>
<!DOCTYPE svg PUBLIC "-//W3C//DTD SVG 20010904//EN"
 "http://www.w3.org/TR/2001/REC-SVG-20010904/DTD/svg10.dtd">
<svg version="1.0" xmlns="http://www.w3.org/2000/svg"
 width="82.000000pt" height="79.000000pt" viewBox="0 0 82.000000 79.000000"
 preserveAspectRatio="xMidYMid meet">

<g transform="translate(0.000000,79.000000) scale(0.100000,-0.100000)"
fill="#ff0000" stroke="none">
<path d="M31 731 c-20 -20 -21 -32 -21 -311 0 -302 3 -328 44 -349 15 -8 110
-11 316 -9 l295 3 3 111 3 110 69 69 c39 38 70 78 70 88 0 22 -52 77 -72 77
-8 0 -25 -12 -39 -26 l-24 -26 -5 104 -5 103 -265 3 -266 2 -9 33 c-8 26 -16
33 -42 35 -22 2 -38 -3 -52 -17z m59 -261 c0 -145 -4 -250 -9 -250 -5 0 -16
-3 -25 -6 -14 -6 -16 20 -16 239 0 224 2 247 18 256 9 6 20 11 25 11 4 0 7
-112 7 -250z m548 73 c3 -115 7 -106 -114 -233 -54 -56 -74 -93 -74 -136 0
-20 5 -24 30 -24 39 0 77 20 114 59 17 17 34 31 38 31 5 0 8 -33 6 -72 l-3
-73 -277 -3 c-267 -2 -278 -2 -298 18 -36 36 -19 75 32 75 l33 0 3 233 2 232
253 -2 252 -3 3 -102z m126 -82 c12 -13 14 -21 6 -26 -13 -8 -52 24 -44 36 8
14 19 11 38 -10z m-120 -158 c-50 -53 -105 -103 -122 -110 -31 -13 -32 -12
-32 13 0 19 26 52 102 130 102 105 102 105 122 85 20 -20 20 -20 -70 -118z"/>
<path d="M215 567 c-3 -7 -4 -100 -3 -207 l3 -195 98 -3 c92 -3 97 -2 97 18 0
19 -6 20 -85 20 l-85 0 0 110 0 110 35 0 c28 0 35 4 35 20 0 16 -7 20 -35 20
-34 0 -35 1 -35 40 l0 40 140 0 140 0 0 -40 0 -40 -85 0 c-78 0 -85 -2 -85
-20 0 -17 7 -20 40 -20 l40 0 0 -46 c0 -41 -2 -45 -22 -42 -17 2 -24 11 -26
31 -2 15 -9 27 -18 27 -11 0 -14 -15 -14 -60 0 -47 3 -60 15 -60 8 0 15 7 15
15 0 11 11 15 40 15 l40 0 0 59 0 60 43 3 42 3 0 75 0 75 -163 3 c-126 2 -164
0 -167 -11z"/>
</g>
</svg>
