<?xml version="1.0" standalone="no"?>
<!DOCTYPE svg PUBLIC "-//W3C//DTD SVG 20010904//EN"
 "http://www.w3.org/TR/2001/REC-SVG-20010904/DTD/svg10.dtd">
<svg version="1.0" xmlns="http://www.w3.org/2000/svg"
 width="82.000000pt" height="79.000000pt" viewBox="0 0 82.000000 79.000000"
 preserveAspectRatio="xMidYMid meet">

<g transform="translate(0.000000,79.000000) scale(0.100000,-0.100000)"
fill="#ff0000" stroke="none">
<path d="M257 702 c-17 -4 -31 -37 -25 -63 2 -11 -18 -15 -102 -19 l-105 -5
-3 -246 c-2 -200 0 -248 12 -258 10 -8 117 -11 387 -9 l374 3 3 257 2 257
-102 3 -103 3 -3 33 c-2 18 -9 35 -16 38 -15 6 -294 11 -319 6z m303 -60 c0
-46 15 -52 122 -52 l98 0 0 -230 0 -230 -365 0 -365 0 0 230 0 229 103 3 102
3 3 38 3 37 150 0 149 0 0 -28z"/>
<path d="M370 600 c-110 -21 -180 -109 -180 -225 0 -197 231 -297 376 -163 57
53 78 109 71 190 -12 131 -137 224 -267 198z m149 -58 c83 -50 114 -157 72
-247 -59 -128 -225 -153 -323 -49 -35 38 -48 74 -48 135 0 156 164 244 299
161z"/>
<path d="M357 546 c-77 -28 -117 -86 -117 -167 0 -71 35 -130 93 -158 79 -38
157 -23 215 43 38 43 46 71 40 136 -11 112 -127 185 -231 146z m119 -37 c54
-26 84 -72 84 -130 0 -138 -164 -200 -256 -97 -67 73 -42 187 49 229 54 24 71
24 123 -2z"/>
<path d="M668 548 c-26 -22 -29 -47 -8 -68 24 -24 43 -25 64 -4 21 21 20 47
-2 67 -22 20 -33 21 -54 5z m35 -49 c-17 -17 -37 -1 -22 17 8 10 15 12 23 4 7
-7 7 -13 -1 -21z"/>
</g>
</svg>
