<?xml version="1.0" standalone="no"?>
<!DOCTYPE svg PUBLIC "-//W3C//DTD SVG 20010904//EN"
 "http://www.w3.org/TR/2001/REC-SVG-20010904/DTD/svg10.dtd">
<svg version="1.0" xmlns="http://www.w3.org/2000/svg"
 width="82.000000pt" height="79.000000pt" viewBox="0 0 82.000000 79.000000"
 preserveAspectRatio="xMidYMid meet">

<g transform="translate(0.000000,79.000000) scale(0.100000,-0.100000)"
fill="#ff0000" stroke="none">
<path d="M105 600 c-63 -63 -96 -103 -90 -109 6 -5 123 -30 260 -56 138 -25
259 -49 271 -51 16 -4 47 19 133 97 61 56 110 103 108 106 -4 4 -554 113 -572
113 -6 0 -55 -45 -110 -100z m369 25 c131 -25 240 -45 243 -45 11 0 -6 -19
-69 -78 -70 -64 -98 -72 -98 -26 0 43 -33 47 -127 19 -20 -6 -22 -3 -25 36
l-3 44 -50 0 c-32 -1 -71 -10 -109 -28 -45 -21 -67 -25 -97 -21 -21 4 -39 9
-39 13 0 4 128 127 136 131 1 0 108 -20 238 -45z"/>
<path d="M500 581 c0 -11 87 -31 130 -31 37 0 39 16 3 25 -46 11 -133 15 -133
6z"/>
<path d="M640 390 c-35 -31 -64 -49 -80 -50 -14 0 -111 16 -214 35 -104 19
-200 35 -215 35 -26 -1 -111 -68 -111 -88 0 -5 44 -17 98 -27 53 -10 175 -33
271 -51 142 -28 176 -32 190 -22 9 7 60 53 114 102 105 96 104 95 32 109 -27
5 -38 -1 -85 -43z"/>
<path d="M646 209 c-42 -36 -65 -49 -80 -45 -12 2 -111 21 -221 41 -110 20
-208 38 -217 41 -20 6 -124 -85 -111 -97 4 -4 129 -30 276 -58 148 -28 272
-53 277 -56 5 -3 61 43 126 102 115 106 117 108 88 114 -63 14 -78 9 -138 -42z"/>
</g>
</svg>
