<?xml version="1.0" standalone="no"?>
<!DOCTYPE svg PUBLIC "-//W3C//DTD SVG 20010904//EN"
 "http://www.w3.org/TR/2001/REC-SVG-20010904/DTD/svg10.dtd">
<svg version="1.0" xmlns="http://www.w3.org/2000/svg"
 width="82.000000pt" height="79.000000pt" viewBox="0 0 82.000000 79.000000"
 preserveAspectRatio="xMidYMid meet">

<g transform="translate(0.000000,79.000000) scale(0.100000,-0.100000)"
fill="#ff0000" stroke="none">
<path d="M125 777 c-3 -6 -4 -183 -3 -392 l3 -380 221 -3 220 -2 72 74 72 74
0 309 c0 227 -3 312 -12 321 -18 18 -567 17 -573 -1z m563 -317 l2 -305 -60
-60 -60 -59 0 52 0 52 35 0 c19 0 35 5 35 10 0 11 -49 14 -74 4 -12 -5 -16
-21 -16 -70 l0 -64 -205 0 -205 0 0 375 0 375 273 -2 272 -3 3 -305z"/>
<path d="M448 699 c-30 -17 -22 -46 17 -59 19 -6 35 -15 35 -20 0 -15 -21 -23
-33 -11 -14 14 -37 14 -37 1 0 -20 48 -34 75 -22 40 18 34 57 -11 72 -28 9
-33 15 -24 24 9 8 14 8 17 -1 6 -15 43 -17 43 -3 0 6 -12 15 -26 20 -31 12
-34 12 -56 -1z"/>
<path d="M180 691 c0 -5 9 -11 20 -14 16 -4 20 -14 20 -51 0 -36 3 -44 15 -40
10 4 15 20 15 50 0 37 3 44 20 44 11 0 20 5 20 10 0 6 -25 10 -55 10 -30 0
-55 -4 -55 -9z"/>
<path d="M310 643 l0 -58 50 3 c56 4 67 19 18 24 -38 4 -40 22 -3 26 35 5 31
22 -5 22 -16 0 -30 5 -30 10 0 6 16 10 35 10 19 0 35 5 35 10 0 6 -22 10 -50
10 l-50 0 0 -57z"/>
<path d="M540 690 c0 -5 9 -10 20 -10 17 0 20 -7 20 -45 0 -38 3 -45 20 -45
17 0 20 7 20 45 0 38 3 45 20 45 11 0 20 5 20 10 0 6 -27 10 -60 10 -33 0 -60
-4 -60 -10z"/>
<path d="M190 449 c-24 -43 43 -92 78 -57 15 15 15 51 0 66 -20 20 -66 15 -78
-9z m68 -22 c4 -20 -25 -34 -40 -19 -15 15 -1 44 19 40 10 -2 19 -11 21 -21z"/>
<path d="M350 425 c0 -13 22 -15 140 -15 118 0 140 2 140 15 0 13 -22 15 -140
15 -118 0 -140 -2 -140 -15z"/>
<path d="M195 296 c-18 -27 -11 -52 17 -67 42 -23 90 45 56 79 -20 20 -56 14
-73 -12z m55 -11 c15 -18 5 -35 -21 -35 -12 0 -19 7 -19 18 0 33 20 42 40 17z"/>
<path d="M350 275 c0 -13 22 -15 140 -15 118 0 140 2 140 15 0 13 -22 15 -140
15 -118 0 -140 -2 -140 -15z"/>
</g>
</svg>
