<?xml version="1.0" standalone="no"?>
<!DOCTYPE svg PUBLIC "-//W3C//DTD SVG 20010904//EN"
 "http://www.w3.org/TR/2001/REC-SVG-20010904/DTD/svg10.dtd">
<svg version="1.0" xmlns="http://www.w3.org/2000/svg"
 width="82.000000pt" height="79.000000pt" viewBox="0 0 82.000000 79.000000"
 preserveAspectRatio="xMidYMid meet">

<g transform="translate(0.000000,79.000000) scale(0.100000,-0.100000)"
fill="#ff0000" stroke="none">
<path d="M614 746 c-10 -19 -31 -40 -50 -50 -19 -8 -34 -20 -34 -26 0 -6 15
-18 34 -26 19 -10 40 -31 50 -50 20 -43 38 -43 59 1 9 19 30 41 47 50 39 20
38 32 -4 51 -19 10 -40 31 -50 50 -8 19 -20 34 -26 34 -6 0 -18 -15 -26 -34z
m57 -55 c27 -28 28 -30 10 -36 -11 -3 -23 -15 -26 -26 -6 -18 -8 -17 -35 11
l-29 31 22 23 c12 13 23 24 25 25 2 1 17 -12 33 -28z"/>
<path d="M130 385 l0 -215 280 0 280 0 0 150 c0 127 -2 150 -15 150 -13 0 -15
-22 -15 -135 l0 -135 -250 0 -250 0 0 185 0 185 150 0 c127 0 150 2 150 15 0
13 -25 15 -165 15 l-165 0 0 -215z"/>
<path d="M504 566 c-10 -19 -31 -40 -50 -50 -19 -8 -34 -20 -34 -26 0 -6 15
-18 34 -26 19 -10 40 -31 50 -50 8 -19 20 -34 26 -34 6 0 18 15 26 34 10 19
31 40 50 50 19 8 34 20 34 26 0 6 -15 18 -34 26 -19 10 -40 31 -50 50 -8 19
-20 34 -26 34 -6 0 -18 -15 -26 -34z m50 -51 l25 -25 -24 -25 -25 -24 -25 25
-24 24 22 24 c12 13 23 24 24 25 1 1 13 -10 27 -24z"/>
<path d="M720 555 c0 -8 -7 -15 -15 -15 -8 0 -15 -7 -15 -15 0 -8 7 -15 15
-15 8 0 15 -7 15 -15 0 -8 7 -15 15 -15 8 0 15 7 15 15 0 8 -7 15 -15 15 -8 0
-15 7 -15 15 0 8 7 15 15 15 9 0 18 -7 21 -15 4 -8 10 -15 15 -15 5 0 9 7 9
15 0 8 -7 15 -15 15 -8 0 -15 7 -15 15 0 8 -7 15 -15 15 -8 0 -15 -7 -15 -15z"/>
<path d="M58 443 c-18 -3 -28 -10 -28 -21 0 -30 49 -405 54 -409 2 -3 125 11
273 29 l268 33 0 34 c0 19 -6 36 -12 38 -8 3 -13 -5 -13 -19 0 -24 -2 -25
-227 -53 -126 -16 -237 -29 -247 -29 -18 -1 -22 15 -42 179 -23 187 -22 195
19 195 11 0 17 6 15 13 -5 14 -20 16 -60 10z"/>
</g>
</svg>
