<?xml version="1.0" encoding="utf-8"?>
<!-- Generator: Adobe Illustrator 21.0.0, SVG Export Plug-In . SVG Version: 6.00 Build 0)  -->
<svg version="1.1" id="Слой_1" xmlns="http://www.w3.org/2000/svg" xmlns:xlink="http://www.w3.org/1999/xlink" x="0px" y="0px"
	 viewBox="0 0 105 105" style="enable-background:new 0 0 105 105;" xml:space="preserve">
<style type="text/css">
	.st0{fill:none;stroke:#231300;stroke-width:2;stroke-linejoin:round;stroke-miterlimit:10;}
	.st1{fill:#231300;}
</style>
<g>
	<path class="st0" d="M59.7,45.7h7.9c0.7,0,1.3,0.3,1.7,0.9l3.4,6.1h1c1.1,0,2,0.7,2,2.2v6.8c0,1.1-0.9,2-2,2h-2"/>
	<polyline class="st0" points="45.7,37.7 59.7,37.7 59.7,63.7 43.7,63.7 	"/>
	<line class="st0" x1="35.7" y1="63.7" x2="30.7" y2="63.7"/>
	<ellipse class="st0" cx="67.7" cy="63.7" rx="4" ry="4"/>
	<ellipse class="st0" cx="39.7" cy="63.7" rx="4" ry="4"/>
	<line class="st0" x1="59.7" y1="63.7" x2="63.7" y2="63.7"/>
	<polyline class="st0" points="61.7,53.7 68.7,53.7 70.7,52.7 72.7,52.7 	"/>
	<line class="st0" x1="28.7" y1="52.7" x2="45.7" y2="52.7"/>
	<line class="st0" x1="31.7" y1="42.7" x2="54.7" y2="42.7"/>
	<line class="st0" x1="37.7" y1="47.7" x2="52.7" y2="47.7"/>
	<line class="st0" x1="35.7" y1="47.7" x2="33.7" y2="47.7"/>
	<line class="st0" x1="43.7" y1="37.7" x2="41.7" y2="37.7"/>
</g>
</svg>
