<?xml version="1.0" encoding="utf-8"?>
<!-- Generator: Adobe Illustrator 21.0.0, SVG Export Plug-In . SVG Version: 6.00 Build 0)  -->
<svg version="1.1" id="Слой_1" xmlns="http://www.w3.org/2000/svg" xmlns:xlink="http://www.w3.org/1999/xlink" x="0px" y="0px"
	 viewBox="0 0 105 105" style="enable-background:new 0 0 105 105;" xml:space="preserve">
<style type="text/css">
	.st0{fill:none;stroke:#231300;stroke-width:2;stroke-linejoin:round;stroke-miterlimit:10;}
</style>
<g>
	<path class="st0" d="M37,53.3c2.3,0,4-1.9,4-4.3v-1.4c0-2.4-1.7-4.3-4-4.3c-2.3,0-4,1.9-4,4.3V49C33,51.4,34.7,53.3,37,53.3z"/>
	<path class="st0" d="M44,58.3c-1.3-0.7-2.9-1.9-5-2c-3.3,0-4.3,0-5,0c-3.6,0-6,1.5-6,6v4c0,4,3.2,5,6,5h4"/>
	<path class="st0" d="M33,61.3v4c0,0.6,0.4,1,1,1h6"/>
	<line class="st0" x1="32" y1="71.3" x2="32" y2="76.3"/>
	<line class="st0" x1="43" y1="73.3" x2="43" y2="76.3"/>
	<path class="st0" d="M49.8,69.3H46l2-4h3.4c0.7,0,1.2,0.8,0.9,1.4l-0.7,1.4C51.2,68.9,50.5,69.3,49.8,69.3z"/>
	<line class="st0" x1="37" y1="60.3" x2="41" y2="65.3"/>
	<polyline class="st0" points="51,65.3 53,61.3 43,61.3 37,73.3 47,73.3 49,69.3 	"/>
	<path class="st0" d="M55,53.3v-1c0-0.9-0.8-1.7-1.4-2.4c-0.9-1-1.6-2.2-1.6-3.6c0-2.8,2.2-5,5-5c2.8,0,5,2.2,5,5
		c0,1.5-0.6,2.7-1.6,3.6c-0.6,0.6-1.4,1.5-1.4,2.4v1H55z"/>
	<line class="st0" x1="57" y1="38.3" x2="57" y2="33.3"/>
	<line class="st0" x1="50.6" y1="40" x2="47.8" y2="37.1"/>
	<line class="st0" x1="49" y1="46.3" x2="44" y2="46.3"/>
	<line class="st0" x1="50.6" y1="52.7" x2="47.8" y2="55.5"/>
	<line class="st0" x1="63.4" y1="52.7" x2="66.2" y2="55.5"/>
	<line class="st0" x1="65" y1="46.3" x2="70" y2="46.3"/>
	<line class="st0" x1="63.4" y1="40" x2="66.2" y2="37.1"/>
	<polyline class="st0" points="55,53.3 55,55.3 56,56.3 58,56.3 59,55.3 59,53.3 	"/>
	<path class="st0" d="M39,40.3v-7c0-1.7,1.3-3,3-3h29c1.7,0,3,1.3,3,3v25c0,1.7-1.3,3-3,3h-3l-6.3,7c-0.6,0.7-1.7,0.3-1.7-0.7v-6.4
		h-4"/>
</g>
</svg>
