<?xml version="1.0" encoding="utf-8"?>
<!-- Generator: Adobe Illustrator 21.0.0, SVG Export Plug-In . SVG Version: 6.00 Build 0)  -->
<svg version="1.1" id="Слой_1" xmlns="http://www.w3.org/2000/svg" xmlns:xlink="http://www.w3.org/1999/xlink" x="0px" y="0px"
	 viewBox="0 0 105 105" style="enable-background:new 0 0 105 105;" xml:space="preserve">
<style type="text/css">
	.st0{fill:none;stroke:#231300;stroke-width:2;stroke-linejoin:round;stroke-miterlimit:10;}
	.st1{fill:#231300;}
</style>
<g>
	<path class="st1" d="M48.5,56.6c0.2-0.2,0.3-0.5,0.2-0.8l-0.3-0.5c-0.1-0.1-0.2-0.2-0.3-0.2c-0.1,0-0.3,0-0.4,0.1
		c-1.6,1.1-3.1,2.3-4.5,3.7L34,67.9c-0.1,0.1-0.2,0.2-0.2,0.4c0,0.1,0.1,0.3,0.2,0.4l0.4,0.4c0.1,0.1,0.2,0.2,0.4,0.2
		s0.3-0.1,0.4-0.2l9.1-9.1C45.6,58.7,47,57.5,48.5,56.6z M47.8,55.3L47.8,55.3L47.8,55.3L47.8,55.3z"/>
	<path class="st1" d="M50.4,57.3L49.9,57c-0.3-0.2-0.6-0.1-0.8,0.2c-1,1.5-2.2,3-3.4,4.2l-9.1,9.1c-0.2,0.2-0.2,0.6,0,0.8l0.4,0.4
		c0.1,0.1,0.2,0.2,0.4,0.2s0.3-0.1,0.4-0.2l9.1-9.1c1.4-1.4,2.6-2.9,3.7-4.5c0.1-0.1,0.1-0.3,0.1-0.4C50.6,57.5,50.5,57.4,50.4,57.3
		z"/>
	<path class="st1" d="M70.9,74c0.7,0,1.3-0.3,1.7-0.7c1-1,1-2.5,0-3.5c-0.9-0.9-2.5-0.9-3.5,0c-0.5,0.5-0.7,1.1-0.7,1.7
		s0.3,1.3,0.7,1.7C69.6,73.7,70.2,74,70.9,74z M70.1,71.5c0-0.2,0.1-0.4,0.2-0.5s0.3-0.2,0.5-0.2s0.4,0.1,0.5,0.2
		c0.3,0.3,0.3,0.8,0,1.1c-0.3,0.3-0.8,0.3-1.1,0C70.2,71.9,70.1,71.7,70.1,71.5z"/>
	<path class="st1" d="M74.2,68.2c-0.9-0.9-2.1-1.4-3.3-1.4c0,0,0,0,0,0L58.7,54.6c0.6-0.7,0-1.9-0.4-2.3L57,51l10.9-10.9
		c1-1,2.2-2,3.4-2.8l0.9-0.6c0.5-0.3,0.9-0.8,1.3-1.3l1.7-2.8l-2.4-2.4L70,31.9c-0.5,0.3-1,0.7-1.3,1.3L68,34.1
		c-0.8,1.2-1.7,2.4-2.8,3.4L54.4,48.4l-1-1c-0.3-0.3-1-0.7-1.6-0.7c-0.3,0-0.6,0.1-0.8,0.3l-5.4-5.4c1.3-3.2,0.6-6.8-1.9-9.2
		c-1.6-1.6-3.7-2.5-6-2.5c-1,0-2,0.2-3,0.5l-1.2,0.5l5.3,5.3l-3.3,3.3l-5.3-5.3l-0.5,1.2c-1.2,3.1-0.4,6.6,2,9
		c1.6,1.6,3.7,2.5,6,2.5c1.1,0,2.2-0.2,3.2-0.6l6,6c0,0-0.1,0-0.1,0.1l-3.3,2.1L30.5,67.6c-0.4,0.4-0.8,1.3-0.2,3.1
		c0.4,1,1,2,1.5,2.5l0.6,0.6c0.8,0.8,2.8,1.9,4.2,1.9c0.6,0,1.1-0.2,1.4-0.5l13-13.1l2.1-3.3c0,0,0-0.1,0.1-0.1l12.8,12.8
		c0,1.3,0.5,2.5,1.4,3.4c0.9,0.9,2.1,1.4,3.3,1.4c1.3,0,2.5-0.5,3.3-1.4c0.9-0.9,1.4-2.1,1.4-3.3S75.1,69.1,74.2,68.2z M50,48.3
		c-0.1,0.3-0.2,0.5-0.3,0.8l-3.3-3.3c-0.1-0.1-0.2-0.2-0.4-0.2h0c-0.1,0-0.3,0.1-0.4,0.2l-0.4,0.4c-0.2,0.2-0.2,0.6,0,0.8l3.6,3.6
		c-0.2,0.2-0.3,0.4-0.5,0.6l-6.9-6.9l-0.5,0.3c-0.9,0.5-2,0.7-3,0.7c-1.8,0-3.5-0.7-4.8-2c-1.5-1.5-2.2-3.7-1.9-5.9l4.5,4.5l5.7-5.7
		l-4.5-4.5c0.6-0.1,1.2-0.1,1.9,0c1,0.1,1.9,0.4,2.7,0.9c3,1.9,4.1,5.7,2.6,8.8L43.6,42L50,48.3z M54.4,57.4
		c0.2-0.2,0.4-0.4,0.6-0.5l9.7,9.7c0.2,0.2,0.6,0.2,0.8,0l0.4-0.4c0.2-0.2,0.2-0.6,0-0.8L56.5,56c0.3-0.1,0.5-0.2,0.8-0.3l12.9,12.9
		l0.4,0c1.2-0.1,2.4,0.5,3,1.6c0.5,1,0.4,2.3-0.2,3.2c-0.6,0.8-1.5,1.2-2.5,1.2c-0.9,0-1.7-0.4-2.3-1c-0.6-0.6-0.8-1.5-0.7-2.4
		l0-0.3L54.4,57.4z M52.2,48.6l4.9,4.9c0,0,0.1,0.1,0.1,0.2l-0.4,0.4c-2.1,0.7-3.8,2-5,3.9l-2,3.1L36.9,74c0,0-0.1,0-0.2,0
		c-0.9,0-2.5-0.8-3.1-1.4L33,72c-0.3-0.3-0.8-1.1-1.1-1.9c-0.3-0.9-0.3-1.3-0.2-1.3l12.9-12.9l3.2-2c1.8-1.2,3.2-2.9,3.9-5l0.4-0.4
		C52.1,48.5,52.2,48.6,52.2,48.6z M72.5,32.4l0.5,0.5l-1,1.7c-0.2,0.3-0.4,0.6-0.7,0.8l-0.9,0.6c-1.3,0.9-2.5,1.9-3.6,3L55.8,49.8
		l-0.2-0.2l10.9-10.9c1.1-1.1,2.1-2.3,3-3.6l0.6-0.9c0.2-0.3,0.5-0.6,0.8-0.7L72.5,32.4z"/>
</g>
</svg>
