<?xml version="1.0" encoding="utf-8"?>
<!-- Generator: Adobe Illustrator 22.0.0, SVG Export Plug-In . SVG Version: 6.00 Build 0)  -->
<svg version="1.1" id="Large_Preview" xmlns="http://www.w3.org/2000/svg" xmlns:xlink="http://www.w3.org/1999/xlink" x="0px"
	 y="0px" viewBox="0 0 3712 3072" style="enable-background:new 0 0 3712 3072;" xml:space="preserve">
<style type="text/css">
	.st0{fill:none;stroke:#515151;stroke-width:16;stroke-linecap:round;stroke-linejoin:round;stroke-miterlimit:10;}
</style>
<g>
	<path class="st0" d="M576.1,617c-14.8,21-113.4,64-152.1,64c0,69.9,0,91.9,0,152c0,71.5,143.6,149.6,152,151.9
		c8.4-2.3,152-85.9,152-143.9c0-60.1,0-90.1,0-160C685.8,681,590.9,638,576.1,617z"/>
	<path class="st0" d="M576,945c6.7-1.8,120-66.6,120-112"/>
	<path class="st0" d="M576,657c-11.7,16.4-89.4,48-120,48c0,54.7,0,72.9,0,120"/>
	<polygon class="st0" points="640,737 560,817 528,785 504,809 560,865 664,761 	"/>
</g>
</svg>
