<?xml version="1.0" encoding="utf-8"?>
<!-- Generator: Adobe Illustrator 22.0.0, SVG Export Plug-In . SVG Version: 6.00 Build 0)  -->
<svg version="1.1" id="icons" xmlns="http://www.w3.org/2000/svg" xmlns:xlink="http://www.w3.org/1999/xlink" x="0px" y="0px"
	 viewBox="0 0 464 384" style="enable-background:new 0 0 464 384;" xml:space="preserve">
<style type="text/css">
	.st0{fill:none;stroke:#505050;stroke-width:2;stroke-miterlimit:10;}
</style>
<g>
	<path class="st0" d="M159,146h7.9c0.7,0,1.3,0.3,1.7,0.9l3.4,6.1h1c1.1,0,2,0.7,2,2.2v6.8c0,1.1-0.9,2-2,2h-2"/>
	<polyline class="st0" points="145,138 159,138 159,164 143,164 	"/>
	<line class="st0" x1="135" y1="164" x2="130" y2="164"/>
	<path class="st0" d="M171,164c0,2.2-1.8,4-4,4s-4-1.8-4-4c0-2.2,1.8-4,4-4S171,161.8,171,164z"/>
	<path class="st0" d="M143,164c0,2.2-1.8,4-4,4c-2.2,0-4-1.8-4-4c0-2.2,1.8-4,4-4C141.2,160,143,161.8,143,164z"/>
	<line class="st0" x1="159" y1="164" x2="163" y2="164"/>
	<polyline class="st0" points="161,154 168,154 170,153 172,153 	"/>
	<line class="st0" x1="128" y1="153" x2="145" y2="153"/>
	<line class="st0" x1="131" y1="143" x2="154" y2="143"/>
	<line class="st0" x1="137" y1="148" x2="152" y2="148"/>
	<line class="st0" x1="135" y1="148" x2="133" y2="148"/>
	<line class="st0" x1="143" y1="138" x2="141" y2="138"/>
</g>
</svg>
