<?xml version="1.0" encoding="UTF-8" standalone="no"?>
<svg
   xmlns:dc="http://purl.org/dc/elements/1.1/"
   xmlns:cc="http://creativecommons.org/ns#"
   xmlns:rdf="http://www.w3.org/1999/02/22-rdf-syntax-ns#"
   xmlns:svg="http://www.w3.org/2000/svg"
   xmlns="http://www.w3.org/2000/svg"
   viewBox="0 0 64 62.666668"
   height="62.666668"
   width="64"
   xml:space="preserve"
   id="svg2"
   version="1.1"><metadata
     id="metadata8"><rdf:RDF><cc:Work
         rdf:about=""><dc:format>image/svg+xml</dc:format><dc:type
           rdf:resource="http://purl.org/dc/dcmitype/StillImage" /></cc:Work></rdf:RDF></metadata><defs
     id="defs6"><clipPath
       id="clipPath18"
       clipPathUnits="userSpaceOnUse"><path
         id="path16"
         d="M 0,47 H 48 V 0 H 0 Z" /></clipPath></defs><g
     transform="matrix(1.3333333,0,0,-1.3333333,0,62.666667)"
     id="g10"><g
       id="g12"><g
         clip-path="url(#clipPath18)"
         id="g14"><g
           transform="translate(10,23)"
           id="g20"><path
             id="path22"
             style="fill:none;stroke:#505050;stroke-width:2;stroke-linecap:butt;stroke-linejoin:miter;stroke-miterlimit:10;stroke-dasharray:none;stroke-opacity:1"
             d="m 0,0 c 2.29,0 4,1.919 4,4.285 v 1.43 C 4,8.081 2.29,10 0,10 -2.29,10 -4,8.081 -4,5.715 V 4.285 C -4,1.919 -2.29,0 0,0 Z" /></g><g
           transform="translate(17,18)"
           id="g24"><path
             id="path26"
             style="fill:none;stroke:#505050;stroke-width:2;stroke-linecap:butt;stroke-linejoin:round;stroke-miterlimit:10;stroke-dasharray:none;stroke-opacity:1"
             d="m 0,0 c -1.333,0.708 -2.917,1.917 -5,2 h -5 c -3.583,0 -6,-1.512 -6,-6 v -4 c 0,-4 3.238,-5 6,-5 h 4" /></g><g
           transform="translate(6,15)"
           id="g28"><path
             id="path30"
             style="fill:none;stroke:#505050;stroke-width:2;stroke-linecap:butt;stroke-linejoin:round;stroke-miterlimit:10;stroke-dasharray:none;stroke-opacity:1"
             d="M 0,0 V -4 C 0,-4.553 0.447,-5 1,-5 H 7" /></g><g
           transform="translate(5,5)"
           id="g32"><path
             id="path34"
             style="fill:none;stroke:#505050;stroke-width:2;stroke-linecap:butt;stroke-linejoin:round;stroke-miterlimit:10;stroke-dasharray:none;stroke-opacity:1"
             d="M 0,0 V -5" /></g><g
           transform="translate(16,3)"
           id="g36"><path
             id="path38"
             style="fill:none;stroke:#505050;stroke-width:2;stroke-linecap:butt;stroke-linejoin:round;stroke-miterlimit:10;stroke-dasharray:none;stroke-opacity:1"
             d="M 0,0 V -3" /></g><g
           transform="translate(22.7637,7)"
           id="g40"><path
             id="path42"
             style="fill:none;stroke:#505050;stroke-width:2;stroke-linecap:butt;stroke-linejoin:round;stroke-miterlimit:10;stroke-dasharray:none;stroke-opacity:1"
             d="m 0,0 h -3.764 l 2,4 H 1.618 C 2.361,4 2.845,3.218 2.513,2.553 L 1.789,1.105 C 1.45,0.428 0.758,0 0,0 Z" /></g><g
           transform="translate(10,16)"
           id="g44"><path
             id="path46"
             style="fill:none;stroke:#505050;stroke-width:2;stroke-linecap:butt;stroke-linejoin:round;stroke-miterlimit:10;stroke-dasharray:none;stroke-opacity:1"
             d="M 0,0 4,-5" /></g><g
           transform="translate(24,11)"
           id="g48"><path
             id="path50"
             style="fill:none;stroke:#505050;stroke-width:2;stroke-linecap:butt;stroke-linejoin:round;stroke-miterlimit:10;stroke-dasharray:none;stroke-opacity:1"
             d="M 0,0 2,4 H -8 l -6,-12 h 10 l 2,4" /></g><g
           transform="translate(28,23)"
           id="g52"><path
             id="path54"
             style="fill:none;stroke:#505050;stroke-width:2;stroke-linecap:butt;stroke-linejoin:round;stroke-miterlimit:10;stroke-dasharray:none;stroke-opacity:1"
             d="M 0,0 V 1 C 0,1.903 -0.81,2.735 -1.437,3.375 -2.381,4.339 -2.994,5.531 -2.994,7 c 0,2.762 2.237,5 4.997,5 C 4.763,12 7,9.762 7,7 7,5.531 6.386,4.339 5.441,3.375 4.815,2.735 4,1.903 4,1 V 0 Z" /></g><g
           transform="translate(30,38)"
           id="g56"><path
             id="path58"
             style="fill:none;stroke:#505050;stroke-width:2;stroke-linecap:butt;stroke-linejoin:round;stroke-miterlimit:10;stroke-dasharray:none;stroke-opacity:1"
             d="M 0,0 V 5" /></g><g
           transform="translate(23.6357,36.3643)"
           id="g60"><path
             id="path62"
             style="fill:none;stroke:#505050;stroke-width:2;stroke-linecap:butt;stroke-linejoin:round;stroke-miterlimit:10;stroke-dasharray:none;stroke-opacity:1"
             d="M 0,0 -2.828,2.828" /></g><g
           transform="translate(22,30)"
           id="g64"><path
             id="path66"
             style="fill:none;stroke:#505050;stroke-width:2;stroke-linecap:butt;stroke-linejoin:round;stroke-miterlimit:10;stroke-dasharray:none;stroke-opacity:1"
             d="M 0,0 H -5" /></g><g
           transform="translate(23.6357,23.6357)"
           id="g68"><path
             id="path70"
             style="fill:none;stroke:#505050;stroke-width:2;stroke-linecap:butt;stroke-linejoin:round;stroke-miterlimit:10;stroke-dasharray:none;stroke-opacity:1"
             d="M 0,0 -2.828,-2.828" /></g><g
           transform="translate(36.3643,23.6357)"
           id="g72"><path
             id="path74"
             style="fill:none;stroke:#505050;stroke-width:2;stroke-linecap:butt;stroke-linejoin:round;stroke-miterlimit:10;stroke-dasharray:none;stroke-opacity:1"
             d="M 0,0 2.828,-2.828" /></g><g
           transform="translate(38,30)"
           id="g76"><path
             id="path78"
             style="fill:none;stroke:#505050;stroke-width:2;stroke-linecap:butt;stroke-linejoin:round;stroke-miterlimit:10;stroke-dasharray:none;stroke-opacity:1"
             d="M 0,0 H 5" /></g><g
           transform="translate(36.3643,36.3643)"
           id="g80"><path
             id="path82"
             style="fill:none;stroke:#505050;stroke-width:2;stroke-linecap:butt;stroke-linejoin:round;stroke-miterlimit:10;stroke-dasharray:none;stroke-opacity:1"
             d="M 0,0 2.828,2.828" /></g><g
           transform="translate(28,23)"
           id="g84"><path
             id="path86"
             style="fill:none;stroke:#505050;stroke-width:2;stroke-linecap:butt;stroke-linejoin:round;stroke-miterlimit:10;stroke-dasharray:none;stroke-opacity:1"
             d="m 0,0 v -2 l 1,-1 h 2 l 1,1 v 2" /></g><g
           transform="translate(12,36)"
           id="g88"><path
             id="path90"
             style="fill:none;stroke:#505050;stroke-width:2;stroke-linecap:butt;stroke-linejoin:round;stroke-miterlimit:10;stroke-dasharray:none;stroke-opacity:1"
             d="m 0,0 v 7 c 0,1.657 1.343,3 3,3 h 29 c 1.657,0 3,-1.343 3,-3 v -25 c 0,-1.657 -1.343,-3 -3,-3 h -3 l -6.253,-7.034 C 22.137,-28.722 21,-28.289 21,-27.37 V -21 h -4" /></g></g></g></g></svg>