<?xml version="1.0" encoding="utf-8"?>
<!-- Generator: Adobe Illustrator 22.0.0, SVG Export Plug-In . SVG Version: 6.00 Build 0)  -->
<svg version="1.1" id="icons" xmlns="http://www.w3.org/2000/svg" xmlns:xlink="http://www.w3.org/1999/xlink" x="0px" y="0px"
	 viewBox="0 0 464 384" style="enable-background:new 0 0 464 384;" xml:space="preserve">
<style type="text/css">
	.st0{fill:none;stroke:#505050;stroke-width:2;stroke-miterlimit:10;}
	.st1{fill:none;stroke:#505050;stroke-width:2;stroke-linejoin:round;stroke-miterlimit:10;}
</style>
<g>
	<path class="st0" d="M214.7,132c4.1,0,7.2-3.4,7.2-7.5v-2.5c0-4.2-3.1-7.5-7.2-7.5c-4.1,0-7.2,3.4-7.2,7.5v2.5
		C207.5,128.6,210.6,132,214.7,132z"/>
	<path class="st1" d="M227.4,140.8c-2.4-1.2-5.3-3.4-9-3.5c-6,0-7.7,0-9,0c-6.5,0-10.8,2.7-10.8,10.6v7c0,7,5.8,8.8,10.8,8.8h7.2"/>
	<path class="st1" d="M207.5,146.1v7c0,1,0.8,1.8,1.8,1.8h10.8"/>
	<line class="st1" x1="205.7" y1="163.7" x2="205.7" y2="172.5"/>
	<line class="st1" x1="225.6" y1="167.2" x2="225.6" y2="172.5"/>
	<path class="st1" d="M237.8,160.2H231l3.6-7h6.1c1.3,0,2.2,1.4,1.6,2.5l-1.3,2.5C240.4,159.4,239.1,160.2,237.8,160.2z"/>
	<line class="st1" x1="214.7" y1="144.3" x2="222" y2="153.1"/>
	<polyline class="st1" points="240,153.1 243.6,146.1 225.6,146.1 214.7,167.2 232.8,167.2 236.4,160.2 	"/>
	<path class="st1" d="M247.2,132v-1.8c0-1.6-1.5-3.1-2.6-4.2c-1.7-1.7-2.8-3.8-2.8-6.4c0-4.9,4-8.8,9-8.8c5,0,9,3.9,9,8.8
		c0,2.6-1.1,4.7-2.8,6.4c-1.1,1.1-2.6,2.6-2.6,4.2v1.8H247.2z"/>
	<line class="st1" x1="250.8" y1="105.6" x2="250.8" y2="96.8"/>
	<line class="st1" x1="239.3" y1="108.5" x2="234.2" y2="103.5"/>
	<line class="st1" x1="236.4" y1="119.7" x2="227.4" y2="119.7"/>
	<line class="st1" x1="239.3" y1="130.9" x2="234.2" y2="135.9"/>
	<line class="st1" x1="262.3" y1="130.9" x2="267.4" y2="135.9"/>
	<line class="st1" x1="265.3" y1="119.7" x2="274.3" y2="119.7"/>
	<line class="st1" x1="262.3" y1="108.5" x2="267.4" y2="103.5"/>
	<polyline class="st1" points="247.2,132 247.2,135.5 249,137.3 252.6,137.3 254.4,135.5 254.4,132 	"/>
	<path class="st1" d="M218.3,109.1V96.8c0-2.9,2.4-5.3,5.4-5.3h52.3c3,0,5.4,2.4,5.4,5.3v44c0,2.9-2.4,5.3-5.4,5.3h-5.4l-11.3,12.4
		c-1.1,1.2-3.2,0.4-3.2-1.2v-11.2H249"/>
</g>
</svg>
